<svg width="47" height="47" viewBox="0 0 47 47" fill="none" xmlns="http://www.w3.org/2000/svg">
<path d="M35.208 8.12402C36.07 8.12402 36.8966 8.46643 37.5061 9.07593C38.1156 9.68542 38.458 10.5121 38.458 11.374C38.458 12.236 38.1156 13.0626 37.5061 13.6721C36.8966 14.2816 36.07 14.624 35.208 14.624C34.3461 14.624 33.5194 14.2816 32.9099 13.6721C32.3004 13.0626 31.958 12.236 31.958 11.374C31.958 10.5121 32.3004 9.68542 32.9099 9.07593C33.5194 8.46643 34.3461 8.12402 35.208 8.12402Z" stroke="black" stroke-width="3.25" stroke-linecap="round" stroke-linejoin="round"/>
<path d="M3.30175 21.4359C1.12859 23.8626 1.08309 27.5242 3.07642 30.1026C6.94828 35.1288 11.4532 39.6337 16.4794 43.5056C19.0578 45.4989 22.7194 45.4534 25.1461 43.2802C31.7058 37.4126 37.8698 31.1169 43.5974 24.4346C44.1757 23.7699 44.5317 22.9412 44.6158 22.0642C44.9711 18.1729 45.7056 6.96256 42.6614 3.92056C39.6173 0.878565 28.4091 1.6109 24.5178 1.9684C23.6408 2.05242 22.812 2.40846 22.1474 2.98673C15.4652 8.71369 9.16949 14.8769 3.30175 21.4359Z" stroke="black" stroke-width="3.25" stroke-linecap="round" stroke-linejoin="round"/>
<path d="M27.1654 24.0856C27.2131 23.2146 27.4557 21.6264 26.1341 20.4174M26.1341 20.4174C25.6298 19.9792 25.0425 19.6469 24.4072 19.4403C21.6837 18.4804 18.3406 21.6914 20.7066 24.6316C21.9784 26.2133 22.9599 26.6986 22.8646 28.4926C22.7996 29.7536 21.5602 31.0731 19.9266 31.5758C18.5074 32.0134 16.9409 31.4349 15.9507 30.3278C14.7396 28.9758 14.8631 27.7018 14.8522 27.1471M26.1341 20.4174L27.6247 18.9268M16.0547 30.4968L14.6399 31.9116" stroke="black" stroke-width="3.25" stroke-linecap="round" stroke-linejoin="round"/>
</svg>
