<svg width="47" height="43" viewBox="0 0 47 43" fill="none" xmlns="http://www.w3.org/2000/svg">
<path d="M23.2998 25.4716V21.9183M23.2998 25.4716C19.6887 25.4716 16.0783 25.0773 12.4686 24.2886M23.2998 25.4716C26.9109 25.4716 30.522 25.0773 34.1331 24.2886M12.4686 24.2886C9.64656 23.666 6.87661 22.8272 4.18327 21.7796C3.07827 21.3549 2.52577 21.1404 2.14661 20.6529C1.51827 19.8426 1.63311 18.7138 1.63311 17.7496C1.63311 15.0781 1.63311 11.5724 2.28311 10.8748C3.51811 9.55311 5.87327 10.7708 7.24477 11.2149C17.9481 14.6859 28.6514 14.6859 39.3548 11.2149C40.7241 10.7708 43.0814 9.55528 44.3143 10.8748C44.9643 11.5724 44.9643 15.0781 44.9643 17.7496C44.9643 19.0886 44.9643 19.7581 44.6718 20.3128C44.2168 21.1621 43.2634 21.4546 42.4163 21.7818C39.7235 22.8278 36.9543 23.6673 34.1331 24.2886M12.4686 24.2886L12.4664 20.7309M34.1331 24.2886V20.7309M38.4664 36.3201C28.3553 39.2133 18.2442 39.2133 8.13311 36.3201" stroke="black" stroke-width="3.25" stroke-linecap="round" stroke-linejoin="round"/>
<path d="M38.8738 1.62765C37.6258 4.46815 36.4753 9.33882 36.4753 11.5727M7.73012 1.62549C8.98029 4.46599 10.1286 9.33666 10.1286 11.5705M8.99545 28.737C8.04212 31.7292 5.53095 37.6442 5.97295 40.6363M37.628 28.737C38.5791 31.7292 41.0903 37.6442 40.6505 40.6363" stroke="black" stroke-width="3.25" stroke-linecap="round" stroke-linejoin="round"/>
</svg>
