<svg width="52" height="52" viewBox="0 0 52 52" fill="none" xmlns="http://www.w3.org/2000/svg">
<path d="M0.05525 27.0855C0.6305 40.9159 12.0299 52 26 52C39.9701 52 51.3695 40.9159 51.9447 27.0855C51.9787 26.9984 51.9974 26.906 52 26.8125C52 26.754 51.9789 26.7036 51.9675 26.65C51.9724 26.4322 52 26.2194 52 26C52 11.6643 40.3358 0 26 0C11.6643 0 0 11.6643 0 26C0 26.2194 0.027625 26.4322 0.0325 26.65C0.021125 26.7036 0 26.754 0 26.8125C0 26.91 0.024375 26.9994 0.05525 27.0855ZM40.4966 36.9557C38.2883 36.04 35.9937 35.3481 33.6472 34.8904C33.904 32.5293 34.0551 30.0771 34.1022 27.6266H42.1947C42.0469 30.9644 41.4538 34.1152 40.4966 36.9557ZM43.8181 27.625H50.2921C50.0044 32.049 48.5075 36.3092 45.9647 39.9409C44.7017 39.0506 43.3661 38.2678 41.9721 37.6009C43.0203 34.5638 43.6654 31.1935 43.8181 27.625ZM20.1321 36.2147C22.0731 35.9084 24.035 35.7531 26 35.75C27.989 35.75 29.9536 35.9157 31.8663 36.2147C30.7385 44.8841 28.275 50.375 26 50.375C23.725 50.375 21.2615 44.8841 20.1321 36.2147ZM22.6005 49.829C18.1301 48.3957 14.3488 44.1886 12.0673 38.48C14.1575 37.6072 16.3295 36.9448 18.551 36.5024C19.2969 42.1834 20.6602 47.1331 22.6005 49.829ZM19.9452 17.4021C21.9484 17.7143 23.9726 17.8724 26 17.875C28.0274 17.8724 30.0516 17.7143 32.0547 17.4021C32.3343 20.0346 32.5 22.9076 32.5 26H19.5C19.5 22.9076 19.6658 20.0346 19.9452 17.4021ZM32.4756 27.625C32.4369 29.9544 32.2959 32.2809 32.0531 34.5979C30.0505 34.2858 28.0268 34.1277 26 34.125C23.9726 34.1276 21.9484 34.2857 19.9452 34.5979C19.7025 32.2809 19.5615 29.9544 19.5228 27.625H32.4756ZM33.4506 36.5024C35.7321 36.9606 37.908 37.6269 39.9344 38.48C37.6529 44.1886 33.8715 48.3957 29.4011 49.829C31.3398 47.1331 32.7031 42.1834 33.4506 36.5024ZM34.125 26C34.125 23.0165 33.9592 19.994 33.6472 17.1112C36.0522 16.6367 38.3532 15.9412 40.4966 15.0459C41.6081 18.343 42.25 22.0578 42.25 26H34.125ZM33.4506 15.4976C32.7031 9.81662 31.3414 4.86525 29.3995 2.171C33.8699 3.60425 37.6512 7.81137 39.9328 13.52C37.8438 14.3947 35.6721 15.0572 33.4506 15.4976ZM31.8679 15.7852C29.9536 16.0842 27.989 16.25 26 16.25C24.011 16.25 22.0464 16.0842 20.1321 15.7852C21.2615 7.11587 23.725 1.625 26 1.625C28.275 1.625 30.7385 7.11587 31.8679 15.7852ZM18.5494 15.4976C16.3278 15.0552 14.1559 14.3928 12.0656 13.52C14.3471 7.81137 18.1285 3.60425 22.5989 2.171C20.6602 4.86688 19.2969 9.81662 18.5494 15.4976ZM18.3527 17.1112C18.0344 20.0635 17.8749 23.0307 17.875 26H9.75C9.75 22.0578 10.3919 18.343 11.5034 15.0443C13.6468 15.9413 15.9477 16.6351 18.3527 17.1112ZM17.8978 27.625C17.9449 30.0755 18.096 32.5276 18.3527 34.8904C15.9477 35.3649 13.6468 36.0604 11.5034 36.9557C10.5463 34.1152 9.95312 30.9644 9.80525 27.625H17.8978ZM10.0262 37.6009C8.63283 38.2679 7.29781 39.0507 6.03525 39.9409C3.49245 36.3092 1.99559 32.049 1.70788 27.625H8.18188C8.33462 31.1935 8.97975 34.5638 10.0262 37.6009ZM7.00863 41.2425C8.14543 40.4408 9.34474 39.7317 10.595 39.1219C12.2265 43.16 14.5746 46.5124 17.3973 48.7793C13.3252 47.2367 9.73878 44.6348 7.00863 41.2425ZM34.6028 48.7776C37.427 46.5124 39.7735 43.1584 41.405 39.1203C42.6887 39.7442 43.8783 40.4625 44.9914 41.2409C42.2623 44.6343 38.6756 47.2364 34.6028 48.7776ZM43.875 26C43.875 21.8286 43.1795 17.8961 41.9738 14.3991C43.4038 13.7134 44.733 12.9253 45.9664 12.0591C48.8374 16.1407 50.3772 21.0098 50.375 26H43.875ZM44.993 10.7575C43.8799 11.5359 42.6904 12.2541 41.4066 12.8781C39.7751 8.84 37.427 5.486 34.6044 3.22075C38.6761 4.76404 42.2623 7.36577 44.993 10.7575ZM17.3973 3.22238C14.573 5.48763 12.2265 8.84163 10.595 12.8798C9.34468 12.2694 8.14537 11.5597 7.00863 10.7575C9.73844 7.36521 13.325 4.76382 17.3973 3.22238ZM6.03525 12.0591C7.29781 12.9493 8.63283 13.7321 10.0262 14.3991C8.7567 18.1347 8.11427 22.0546 8.125 26H1.625C1.625 20.8162 3.26462 16.0144 6.03525 12.0591Z" fill="black"/>
</svg>
