<svg width="17" height="17" viewBox="0 0 17 17" fill="none" xmlns="http://www.w3.org/2000/svg">
<path d="M13.125 13.125C13.5891 13.125 14.0342 13.3094 14.3624 13.6376C14.6906 13.9658 14.875 14.4109 14.875 14.875C14.875 15.3391 14.6906 15.7842 14.3624 16.1124C14.0342 16.4406 13.5891 16.625 13.125 16.625C12.6609 16.625 12.2158 16.4406 11.8876 16.1124C11.5594 15.7842 11.375 15.3391 11.375 14.875C11.375 14.4109 11.5594 13.9658 11.8876 13.6376C12.2158 13.3094 12.6609 13.125 13.125 13.125ZM13.125 14C12.8929 14 12.6704 14.0922 12.5063 14.2563C12.3422 14.4204 12.25 14.6429 12.25 14.875C12.25 15.1071 12.3422 15.3296 12.5063 15.4937C12.6704 15.6578 12.8929 15.75 13.125 15.75C13.3571 15.75 13.5796 15.6578 13.7437 15.4937C13.9078 15.3296 14 15.1071 14 14.875C14 14.6429 13.9078 14.4204 13.7437 14.2563C13.5796 14.0922 13.3571 14 13.125 14ZM5.25 13.125C5.71413 13.125 6.15925 13.3094 6.48744 13.6376C6.81563 13.9658 7 14.4109 7 14.875C7 15.3391 6.81563 15.7842 6.48744 16.1124C6.15925 16.4406 5.71413 16.625 5.25 16.625C4.78587 16.625 4.34075 16.4406 4.01256 16.1124C3.68437 15.7842 3.5 15.3391 3.5 14.875C3.5 14.4109 3.68437 13.9658 4.01256 13.6376C4.34075 13.3094 4.78587 13.125 5.25 13.125ZM5.25 14C5.01794 14 4.79538 14.0922 4.63128 14.2563C4.46719 14.4204 4.375 14.6429 4.375 14.875C4.375 15.1071 4.46719 15.3296 4.63128 15.4937C4.79538 15.6578 5.01794 15.75 5.25 15.75C5.48206 15.75 5.70462 15.6578 5.86872 15.4937C6.03281 15.3296 6.125 15.1071 6.125 14.875C6.125 14.6429 6.03281 14.4204 5.86872 14.2563C5.70462 14.0922 5.48206 14 5.25 14ZM14.875 2.625H2.86125L5.0925 7.875H12.25C12.5387 7.875 12.7925 7.735 12.95 7.525L15.575 4.025C15.6887 3.87625 15.75 3.6925 15.75 3.5C15.75 3.26794 15.6578 3.04538 15.4937 2.88128C15.3296 2.71719 15.1071 2.625 14.875 2.625ZM12.25 8.75H5.13625L4.4625 10.115L4.375 10.5C4.375 10.7321 4.46719 10.9546 4.63128 11.1187C4.79538 11.2828 5.01794 11.375 5.25 11.375H14.875V12.25H5.25C4.78587 12.25 4.34075 12.0656 4.01256 11.7374C3.68437 11.4092 3.5 10.9641 3.5 10.5C3.49974 10.2031 3.57502 9.91103 3.71875 9.65125L4.34875 8.365L1.1725 0.875H0V0H1.75L2.49375 1.75H14.875C15.3391 1.75 15.7842 1.93437 16.1124 2.26256C16.4406 2.59075 16.625 3.03587 16.625 3.5C16.625 3.9375 16.4762 4.305 16.2312 4.6025L13.685 8.00625C13.37 8.4525 12.845 8.75 12.25 8.75Z" fill="#9C0306"/>
</svg>
