<svg width="24" height="24" viewBox="0 0 24 24" fill="none" xmlns="http://www.w3.org/2000/svg">
<path d="M18.6667 18.6667C17.3717 18.6667 16.3333 19.705 16.3333 21C16.3333 21.6188 16.5792 22.2123 17.0168 22.6499C17.4543 23.0875 18.0478 23.3333 18.6667 23.3333C19.2855 23.3333 19.879 23.0875 20.3166 22.6499C20.7542 22.2123 21 21.6188 21 21C21 20.3812 20.7542 19.7877 20.3166 19.3501C19.879 18.9125 19.2855 18.6667 18.6667 18.6667ZM0 0V2.33333H2.33333L6.53333 11.1883L4.94667 14.0467C4.77167 14.3733 4.66667 14.7583 4.66667 15.1667C4.66667 15.7855 4.9125 16.379 5.35008 16.8166C5.78767 17.2542 6.38116 17.5 7 17.5H21V15.1667H7.49C7.41265 15.1667 7.33846 15.1359 7.28376 15.0812C7.22906 15.0265 7.19833 14.9524 7.19833 14.875C7.19833 14.8167 7.21 14.77 7.23333 14.735L8.28333 12.8333H16.975C17.85 12.8333 18.62 12.3433 19.0167 11.6317L23.1933 4.08333C23.275 3.89667 23.3333 3.69833 23.3333 3.5C23.3333 3.19058 23.2104 2.89383 22.9916 2.67504C22.7728 2.45625 22.4761 2.33333 22.1667 2.33333H4.91167L3.815 0M7 18.6667C5.705 18.6667 4.66667 19.705 4.66667 21C4.66667 21.6188 4.9125 22.2123 5.35008 22.6499C5.78767 23.0875 6.38116 23.3333 7 23.3333C7.61884 23.3333 8.21233 23.0875 8.64992 22.6499C9.0875 22.2123 9.33333 21.6188 9.33333 21C9.33333 20.3812 9.0875 19.7877 8.64992 19.3501C8.21233 18.9125 7.61884 18.6667 7 18.6667Z" fill="white"/>
</svg>
