<svg width="20" height="20" viewBox="0 0 20 20" fill="none" xmlns="http://www.w3.org/2000/svg">
<path fill-rule="evenodd" clip-rule="evenodd" d="M7 5C7 3.93913 7.42143 2.92172 8.17157 2.17157C8.92172 1.42143 9.93913 1 11 1C12.0609 1 13.0783 1.42143 13.8284 2.17157C14.5786 2.92172 15 3.93913 15 5C15 6.06087 14.5786 7.07828 13.8284 7.82843C13.0783 8.57857 12.0609 9 11 9C9.93913 9 8.92172 8.57857 8.17157 7.82843C7.42143 7.07828 7 6.06087 7 5ZM7 11C5.67392 11 4.40215 11.5268 3.46447 12.4645C2.52678 13.4021 2 14.6739 2 16C2 16.7956 2.31607 17.5587 2.87868 18.1213C3.44129 18.6839 4.20435 19 5 19H17C17.7956 19 18.5587 18.6839 19.1213 18.1213C19.6839 17.5587 20 16.7956 20 16C20 14.6739 19.4732 13.4021 18.5355 12.4645C17.5979 11.5268 16.3261 11 15 11H7Z" fill="white"/>
</svg>
