<svg width="169" height="40" viewBox="0 0 169 40" fill="none" xmlns="http://www.w3.org/2000/svg">
<g clip-path="url(#clip0_1_7074)">
<path fill-rule="evenodd" clip-rule="evenodd" d="M10.0148 2.5V40H0V2.5H10.0148Z" fill="#283841"/>
<path fill-rule="evenodd" clip-rule="evenodd" d="M15.0222 2.5H36.3037C43.2175 2.5 48.8222 8.09644 48.8222 15C48.8222 21.9036 43.2175 27.5 36.3037 27.5H25.037V40H15.0222V2.5ZM25.037 17.5H36.3037C37.6865 17.5 38.8074 16.3807 38.8074 15C38.8074 13.6193 37.6865 12.5 36.3037 12.5H25.037V17.5Z" fill="#283841"/>
<path fill-rule="evenodd" clip-rule="evenodd" d="M86.3778 2.5V21.875C86.3778 26.3623 90.0208 30 94.5148 30C99.0088 30 102.652 26.3623 102.652 21.875V2.5H112.667V21.875C112.667 31.8852 104.54 40 94.5148 40C84.4898 40 76.363 31.8852 76.363 21.875V2.5H86.3778Z" fill="#283841"/>
<path fill-rule="evenodd" clip-rule="evenodd" d="M52.5778 20C52.5778 10.335 60.4244 2.5 70.1037 2.5H72.6074V12.5H70.1037C65.9554 12.5 62.5926 15.8579 62.5926 20V21.25C62.5926 31.6053 54.1855 40 43.8148 40H42.563V30H43.8148C48.6545 30 52.5778 26.0825 52.5778 21.25V20Z" fill="#283841"/>
<path d="M169 3.75C169 5.82107 167.319 7.5 165.244 7.5C163.17 7.5 161.489 5.82107 161.489 3.75C161.489 1.67893 163.17 0 165.244 0C167.319 0 169 1.67893 169 3.75Z" fill="#283841"/>
<path d="M123.42 39.9999L128.199 20.018L131.752 32.0392C133.87 39.209 144.041 39.209 146.16 32.0392L149.712 20.018L154.491 39.9999H164.787L157.273 8.57937C155.486 1.10732 144.941 0.830666 142.763 8.19879L138.956 21.0832L135.148 8.1988C132.971 0.830709 122.425 1.10728 120.638 8.57936L113.124 39.9999H123.42Z" fill="#283841"/>
</g>
<defs>
<clipPath id="clip0_1_7074">
<rect width="169" height="40" fill="white"/>
</clipPath>
</defs>
</svg>
