<svg width="220" height="40" viewBox="0 0 220 40" fill="none" xmlns="http://www.w3.org/2000/svg">
<g clip-path="url(#clip0_1_7054)">
<path d="M20 40C31.046 40 40 31.046 40 20V6C40 4.4087 39.3678 2.88258 38.2426 1.75736C37.1174 0.632141 35.5913 0 34 0L21 0V8.774C21 10.776 21.122 12.85 22.172 14.554C22.9237 15.7752 23.9292 16.8204 25.1205 17.6188C26.3117 18.4171 27.6607 18.9499 29.076 19.181L29.459 19.243C29.6169 19.297 29.754 19.399 29.851 19.5347C29.9481 19.6704 30.0002 19.8331 30.0002 20C30.0002 20.1669 29.9481 20.3296 29.851 20.4653C29.754 20.601 29.6169 20.703 29.459 20.757L29.076 20.819C27.0082 21.1568 25.0987 22.1356 23.6171 23.6171C22.1355 25.0987 21.1568 27.0082 20.819 29.076L20.757 29.459C20.703 29.6169 20.601 29.754 20.4653 29.851C20.3295 29.9481 20.1669 30.0003 20 30.0003C19.8331 30.0003 19.6704 29.9481 19.5347 29.851C19.399 29.754 19.297 29.6169 19.243 29.459L19.181 29.076C18.9499 27.6607 18.417 26.3118 17.6187 25.1205C16.8204 23.9293 15.7752 22.9237 14.554 22.172C12.85 21.122 10.776 21 8.77399 21H0.0239868C0.546987 31.581 9.28999 40 20 40Z" fill="#0E1534"/>
<path d="M0 19H8.774C10.776 19 12.85 18.878 14.554 17.828C15.886 17.0073 17.0073 15.886 17.828 14.554C18.878 12.85 19 10.776 19 8.774V0H6C4.4087 0 2.88258 0.632141 1.75736 1.75736C0.632141 2.88258 0 4.4087 0 6L0 19ZM46.455 2C46.455 2.53043 46.2443 3.03914 45.8692 3.41421C45.4941 3.78929 44.9854 4 44.455 4C43.9246 4 43.4159 3.78929 43.0408 3.41421C42.6657 3.03914 42.455 2.53043 42.455 2C42.455 1.46957 42.6657 0.960859 43.0408 0.585786C43.4159 0.210714 43.9246 0 44.455 0C44.9854 0 45.4941 0.210714 45.8692 0.585786C46.2443 0.960859 46.455 1.46957 46.455 2ZM211.711 12.104C217.302 12.104 220 16.009 220 20.532V29.027H214.149V21.54C214.149 19.49 213.401 17.798 211.256 17.798C209.111 17.798 208.396 19.49 208.396 21.54V29.026H202.545V21.54C202.545 19.49 201.83 17.798 199.684 17.798C197.539 17.798 196.791 19.49 196.791 21.54V29.026H190.941V20.531C190.941 16.008 193.638 12.103 199.229 12.103C202.285 12.103 204.495 13.307 205.503 15.292C206.575 13.307 208.916 12.102 211.711 12.102V12.104ZM180.427 23.82C182.312 23.82 183.125 22.095 183.125 20.044V12.754H188.975V20.76C188.975 25.544 186.18 29.515 180.427 29.515C174.673 29.515 171.878 25.545 171.878 20.76V12.754H177.729V20.044C177.729 22.094 178.541 23.82 180.427 23.82ZM163.275 29.547C159.602 29.547 157.229 28.278 155.831 25.805L160.057 23.429C160.642 24.47 161.519 24.991 162.982 24.991C164.185 24.991 164.737 24.568 164.737 24.047C164.737 22.062 156.156 24.08 156.156 17.767C156.156 14.707 158.756 12.234 163.177 12.234C167.045 12.234 169.158 14.121 170.101 15.944L165.875 18.352C165.518 17.376 164.412 16.79 163.307 16.79C162.462 16.79 162.007 17.148 162.007 17.636C162.007 19.654 170.588 17.799 170.588 23.917C170.588 27.334 167.24 29.547 163.275 29.547ZM142.833 36.512H136.982V20.858C136.982 15.878 140.72 12.266 145.921 12.266C150.992 12.266 154.86 16.139 154.86 20.858C154.86 26.065 151.414 29.515 146.246 29.515C145.043 29.515 143.841 29.157 142.833 28.603V36.512ZM145.921 24.015C147.774 24.015 149.009 22.583 149.009 20.89C149.009 19.166 147.774 17.766 145.921 17.766C144.068 17.766 142.833 19.166 142.833 20.891C142.833 22.583 144.068 24.015 145.921 24.015ZM131.121 11.03C129.203 11.03 127.611 9.435 127.611 7.515C127.611 5.595 129.203 4 131.121 4C133.039 4 134.632 5.595 134.632 7.515C134.632 9.435 133.039 11.03 131.121 11.03ZM128.196 12.754H134.047V29.027H128.196V12.754ZM116.97 29.515C111.899 29.515 108.031 25.61 108.031 20.858C108.031 16.139 111.899 12.234 116.97 12.234C122.041 12.234 125.909 16.139 125.909 20.858C125.909 25.61 122.041 29.515 116.97 29.515ZM116.97 24.015C118.823 24.015 120.058 22.583 120.058 20.89C120.058 19.166 118.823 17.734 116.97 17.734C115.117 17.734 113.882 19.166 113.882 20.89C113.882 22.583 115.117 24.015 116.97 24.015ZM96.983 37C92.953 37 90.027 35.21 88.532 32.02L93.375 29.417C93.895 30.524 94.87 31.663 96.885 31.663C98.999 31.663 100.396 30.328 100.559 27.985C99.779 28.669 98.543 29.189 96.691 29.189C92.172 29.189 88.531 25.707 88.531 20.825C88.531 16.107 92.4 12.266 97.471 12.266C102.672 12.266 106.41 15.879 106.41 20.858V27.302C106.41 33.16 102.346 37 96.983 37ZM97.373 23.69C99.128 23.69 100.461 22.485 100.461 20.695C100.461 18.938 99.129 17.766 97.373 17.766C95.65 17.766 94.285 18.938 94.285 20.696C94.285 22.486 95.65 23.689 97.373 23.689V23.69ZM78.607 29.515C73.536 29.515 69.667 25.61 69.667 20.858C69.667 16.139 73.536 12.234 78.607 12.234C83.677 12.234 87.546 16.139 87.546 20.858C87.546 25.61 83.678 29.515 78.607 29.515ZM78.607 24.015C80.46 24.015 81.695 22.583 81.695 20.89C81.695 19.166 80.46 17.734 78.607 17.734C76.754 17.734 75.519 19.166 75.519 20.89C75.519 22.583 76.754 24.015 78.607 24.015ZM59.013 7.06V23.494H68.7V29.027H58.2C54.495 29.027 53 27.074 53 23.982V7.06H59.013Z" fill="#0E1534"/>
</g>
<defs>
<clipPath id="clip0_1_7054">
<rect width="220" height="40" fill="white"/>
</clipPath>
</defs>
</svg>
