<svg width="202" height="40" viewBox="0 0 202 40" fill="none" xmlns="http://www.w3.org/2000/svg">
<g clip-path="url(#clip0_1_7081)">
<path fill-rule="evenodd" clip-rule="evenodd" d="M25.5557 11.6853C23.9112 10.5865 21.9778 10 20 10V0C23.9556 0 27.8224 1.17298 31.1114 3.37061C34.4004 5.56823 36.9638 8.69181 38.4776 12.3463C39.9913 16.0008 40.3874 20.0222 39.6157 23.9018C38.844 27.7814 36.9392 31.3451 34.1421 34.1421C31.3451 36.9392 27.7814 38.844 23.9018 39.6157C20.0222 40.3874 16.0008 39.9913 12.3463 38.4776C8.6918 36.9638 5.56823 34.4004 3.37061 31.1114C1.17298 27.8224 0 23.9556 0 20H10C10 21.9778 10.5865 23.9112 11.6853 25.5557C12.7841 27.2002 14.3459 28.4819 16.1732 29.2388C18.0004 29.9957 20.0111 30.1937 21.9509 29.8078C23.8907 29.422 25.6725 28.4696 27.0711 27.0711C28.4696 25.6725 29.422 23.8907 29.8078 21.9509C30.1937 20.0111 29.9957 18.0004 29.2388 16.1732C28.4819 14.3459 27.2002 12.7841 25.5557 11.6853Z" fill="#007DFC"/>
<path fill-rule="evenodd" clip-rule="evenodd" d="M9.99999 5.28493e-06C9.99999 1.31322 9.74134 2.61358 9.23879 3.82684C8.73624 5.04009 7.99965 6.14248 7.07106 7.07107C6.14248 7.99966 5.04009 8.73625 3.82683 9.2388C2.61357 9.74134 1.31321 10 4.3711e-07 10L0 20C2.62643 20 5.22715 19.4827 7.65367 18.4776C10.0802 17.4725 12.285 15.9993 14.1421 14.1421C15.9993 12.285 17.4725 10.0802 18.4776 7.65367C19.4827 5.22715 20 2.62643 20 0L9.99999 5.28493e-06Z" fill="#007DFC"/>
<path d="M125.619 14.4521H120.767V29.8644H125.619V14.4521Z" fill="#007DFC"/>
<path d="M121.307 11.5666C121.814 12.074 122.448 12.3277 123.209 12.3277C123.97 12.3277 124.594 12.074 125.08 11.5666C125.567 11.0381 125.81 10.4038 125.81 9.66385C125.81 8.90277 125.567 8.26849 125.08 7.76111C124.594 7.25369 123.97 7 123.209 7C122.448 7 121.814 7.25369 121.307 7.76111C120.82 8.26849 120.577 8.90277 120.577 9.66385C120.577 10.4038 120.82 11.0381 121.307 11.5666Z" fill="#007DFC"/>
<path d="M51.1562 29.8647V7.47559H56.1351V25.4884H66.0612V29.8647H51.1562Z" fill="#007DFC"/>
<path fill-rule="evenodd" clip-rule="evenodd" d="M75.0274 30.2135C73.4418 30.2135 72.0042 29.8647 70.7145 29.167C69.446 28.4482 68.4418 27.4757 67.7018 26.2494C66.9619 25.0232 66.5919 23.649 66.5919 22.1268C66.5919 20.6046 66.9619 19.241 67.7018 18.0359C68.4418 16.8308 69.446 15.8794 70.7145 15.1818C71.983 14.4629 73.4207 14.1035 75.0274 14.1035C76.6342 14.1035 78.0718 14.4524 79.3403 15.15C80.6088 15.8477 81.6131 16.8097 82.353 18.0359C83.093 19.241 83.463 20.6046 83.463 22.1268C83.463 23.649 83.093 25.0232 82.353 26.2494C81.6131 27.4757 80.6088 28.4482 79.3403 29.167C78.0718 29.8647 76.6342 30.2135 75.0274 30.2135ZM75.0274 25.8055C75.7251 25.8055 76.3382 25.6575 76.8668 25.3615C77.3953 25.0444 77.797 24.611 78.0718 24.0613C78.3678 23.4905 78.5158 22.8456 78.5158 22.1268C78.5158 21.408 78.3678 20.7843 78.0718 20.2558C77.7758 19.7061 77.3636 19.2833 76.835 18.9873C76.3276 18.6701 75.7251 18.5116 75.0274 18.5116C74.3509 18.5116 73.7484 18.6701 73.2198 18.9873C72.6913 19.2833 72.279 19.7061 71.983 20.2558C71.687 20.8055 71.5391 21.4397 71.5391 22.1585C71.5391 22.8562 71.687 23.4905 71.983 24.0613C72.279 24.611 72.6913 25.0444 73.2198 25.3615C73.7484 25.6575 74.3509 25.8055 75.0274 25.8055Z" fill="#007DFC"/>
<path fill-rule="evenodd" clip-rule="evenodd" d="M87.3057 35.8906C88.5953 36.4825 90.0858 36.7785 91.7772 36.7785C93.4262 36.7785 94.8956 36.4508 96.1852 35.7954C97.4749 35.14 98.4896 34.231 99.2296 33.0682C99.9695 31.9054 100.34 30.5312 100.34 28.9455V14.4529H95.5826V15.4884C95.2288 15.1906 94.827 14.9406 94.3776 14.7383C93.553 14.3366 92.6122 14.1357 91.5552 14.1357C90.1387 14.1357 88.8807 14.474 87.7814 15.1505C86.6819 15.8059 85.8152 16.715 85.1809 17.8778C84.5466 19.0195 84.2296 20.3091 84.2296 21.7468C84.2296 23.1633 84.5466 24.4529 85.1809 25.6157C85.8152 26.7785 86.6819 27.6982 87.7814 28.3747C88.8807 29.0512 90.1387 29.3895 91.5552 29.3895C92.5911 29.3895 93.5319 29.1887 94.3776 28.787C94.7872 28.5924 95.1572 28.3631 95.4875 28.099V29.0724C95.4875 30.1506 95.1387 30.9857 94.441 31.5777C93.7645 32.1697 92.8237 32.4656 91.6186 32.4656C90.6461 32.4656 89.811 32.2965 89.1133 31.9582C88.4368 31.62 87.8236 31.1231 87.2739 30.4677L84.293 33.4487C85.0329 34.5058 86.0372 35.3198 87.3057 35.8906ZM94.219 24.6326C93.7327 24.9286 93.1514 25.0766 92.4748 25.0766C91.7983 25.0766 91.2063 24.9286 90.6989 24.6326C90.2126 24.3366 89.8321 23.9349 89.5573 23.4275C89.2824 22.899 89.145 22.3387 89.145 21.7468C89.145 21.1125 89.2824 20.5417 89.5573 20.0343C89.8321 19.5269 90.2232 19.1252 90.7306 18.8292C91.238 18.5332 91.8194 18.3852 92.4748 18.3852C93.1514 18.3852 93.7327 18.5332 94.219 18.8292C94.7264 19.1252 95.1069 19.5269 95.3607 20.0343C95.6355 20.5417 95.7729 21.1125 95.7729 21.7468C95.7729 22.381 95.6355 22.9518 95.3607 23.4592C95.1069 23.9455 94.7264 24.3366 94.219 24.6326Z" fill="#007DFC"/>
<path fill-rule="evenodd" clip-rule="evenodd" d="M110.551 30.2135C108.965 30.2135 107.527 29.8647 106.238 29.167C104.969 28.4482 103.965 27.4757 103.225 26.2494C102.485 25.0232 102.115 23.649 102.115 22.1268C102.115 20.6046 102.485 19.241 103.225 18.0359C103.965 16.8308 104.969 15.8794 106.238 15.1818C107.506 14.4629 108.944 14.1035 110.551 14.1035C112.157 14.1035 113.595 14.4524 114.863 15.15C116.132 15.8477 117.136 16.8097 117.876 18.0359C118.616 19.241 118.986 20.6046 118.986 22.1268C118.986 23.649 118.616 25.0232 117.876 26.2494C117.136 27.4757 116.132 28.4482 114.863 29.167C113.595 29.8647 112.157 30.2135 110.551 30.2135ZM110.551 25.8055C111.248 25.8055 111.861 25.6575 112.39 25.3615C112.918 25.0444 113.32 24.611 113.595 24.0613C113.891 23.4905 114.039 22.8456 114.039 22.1268C114.039 21.408 113.891 20.7843 113.595 20.2558C113.299 19.7061 112.887 19.2833 112.358 18.9873C111.851 18.6701 111.248 18.5116 110.551 18.5116C109.874 18.5116 109.271 18.6701 108.743 18.9873C108.214 19.2833 107.802 19.7061 107.506 20.2558C107.21 20.8055 107.062 21.4397 107.062 22.1585C107.062 22.8562 107.21 23.4905 107.506 24.0613C107.802 24.611 108.214 25.0444 108.743 25.3615C109.271 25.6575 109.874 25.8055 110.551 25.8055Z" fill="#007DFC"/>
<path fill-rule="evenodd" clip-rule="evenodd" d="M137.281 30.1823C136.246 30.1823 135.294 29.9815 134.427 29.5798C133.971 29.3684 133.559 29.116 133.191 28.8226V36.3663H128.402V14.4529H133.254V15.5166C133.606 15.2287 133.997 14.9798 134.427 14.77C135.294 14.3471 136.246 14.1357 137.281 14.1357C138.74 14.1357 140.03 14.4846 141.15 15.1823C142.292 15.8799 143.18 16.8313 143.814 18.0364C144.47 19.2415 144.797 20.6157 144.797 22.159C144.797 23.7024 144.47 25.0766 143.814 26.2817C143.18 27.4868 142.292 28.4381 141.15 29.1358C140.03 29.8335 138.74 30.1823 137.281 30.1823ZM136.394 25.806C137.091 25.806 137.694 25.6474 138.201 25.3303C138.73 25.0132 139.142 24.5797 139.438 24.0301C139.734 23.4804 139.882 22.8567 139.882 22.159C139.882 21.4402 139.734 20.806 139.438 20.2563C139.142 19.7066 138.73 19.2838 138.201 18.9878C137.694 18.6706 137.102 18.5121 136.425 18.5121C135.749 18.5121 135.146 18.6706 134.618 18.9878C134.11 19.2838 133.709 19.7066 133.413 20.2563C133.117 20.806 132.969 21.4402 132.969 22.159C132.969 22.8567 133.106 23.4804 133.381 24.0301C133.677 24.5797 134.089 25.0132 134.618 25.3303C135.146 25.6474 135.738 25.806 136.394 25.806Z" fill="#007DFC"/>
<path d="M149.546 29.8968C150.434 30.1294 151.332 30.2456 152.241 30.2456C154.165 30.2456 155.687 29.8017 156.808 28.9137C157.949 28.0258 158.52 26.8313 158.52 25.3302C158.52 24.3577 158.341 23.5754 157.981 22.9835C157.622 22.3704 157.157 21.8841 156.586 21.5247C156.015 21.1653 155.412 20.8798 154.778 20.6684C154.144 20.457 153.541 20.2773 152.971 20.1293C152.4 19.9813 151.935 19.8122 151.575 19.6219C151.216 19.4316 151.036 19.1779 151.036 18.8608C151.036 18.5648 151.174 18.3428 151.448 18.1948C151.723 18.0257 152.135 17.9412 152.685 17.9412C153.256 17.9412 153.837 18.0574 154.429 18.29C155.042 18.5225 155.592 18.9243 156.078 19.4951L158.837 16.7044C158.14 15.8164 157.231 15.1504 156.11 14.7065C155.011 14.2414 153.806 14.0088 152.495 14.0088C151.248 14.0088 150.159 14.2202 149.229 14.643C148.298 15.0659 147.579 15.6473 147.072 16.3872C146.565 17.106 146.311 17.9623 146.311 18.956C146.311 19.8862 146.491 20.6579 146.85 21.271C147.209 21.8629 147.675 22.3281 148.245 22.6663C148.816 23.0046 149.419 23.2689 150.053 23.4591C150.687 23.6494 151.29 23.8291 151.861 23.9983C152.431 24.1463 152.897 24.326 153.256 24.5374C153.637 24.7277 153.827 25.0131 153.827 25.3936C153.827 25.6896 153.668 25.9221 153.351 26.0913C153.055 26.2604 152.622 26.345 152.051 26.345C151.226 26.345 150.465 26.197 149.768 25.901C149.07 25.5839 148.467 25.1505 147.96 24.6008L145.201 27.3915C145.73 27.9623 146.364 28.4698 147.104 28.9137C147.865 29.3365 148.679 29.6642 149.546 29.8968Z" fill="#007DFC"/>
<path d="M167.368 30.2132C165.952 30.2132 164.694 29.9278 163.595 29.357C162.516 28.765 161.671 27.9616 161.058 26.9468C160.444 25.9109 160.138 24.727 160.138 23.395V14.4521H164.99V23.3316C164.99 23.8601 165.074 24.3147 165.244 24.6952C165.434 25.0758 165.709 25.3718 166.068 25.5832C166.428 25.7946 166.861 25.9003 167.368 25.9003C168.087 25.9003 168.658 25.6783 169.081 25.2343C169.504 24.7692 169.715 24.135 169.715 23.3316V14.4521H174.567V23.3633C174.567 24.7164 174.261 25.9109 173.647 26.9468C173.034 27.9616 172.189 28.765 171.11 29.357C170.032 29.9278 168.785 30.2132 167.368 30.2132Z" fill="#007DFC"/>
<path d="M181.831 14.4529H176.979V29.8652H181.831V20.8588C181.831 20.3303 181.937 19.8863 182.148 19.5269C182.381 19.1675 182.688 18.8926 183.068 18.7024C183.449 18.4909 183.882 18.3852 184.368 18.3852C185.066 18.3852 185.647 18.6072 186.112 19.0512C186.599 19.474 186.842 20.0766 186.842 20.8588V29.8652H191.694V20.8588C191.694 20.3303 191.8 19.8863 192.011 19.5269C192.244 19.1675 192.55 18.8926 192.931 18.7024C193.311 18.4909 193.745 18.3852 194.231 18.3852C194.929 18.3852 195.51 18.6072 195.975 19.0512C196.461 19.474 196.704 20.0766 196.704 20.8588V29.8652H201.557V20.3197C201.557 19.0301 201.282 17.9307 200.732 17.0216C200.203 16.0913 199.474 15.3831 198.544 14.8969C197.635 14.3894 196.588 14.1357 195.404 14.1357C194.199 14.1357 193.11 14.4 192.138 14.9286C191.506 15.2653 190.954 15.6999 190.481 16.2323C190.04 15.6754 189.504 15.2197 188.871 14.8651C188.026 14.3789 187.064 14.1357 185.986 14.1357C184.844 14.1357 183.819 14.3789 182.91 14.8651C182.514 15.0674 182.155 15.3097 181.831 15.592V14.4529Z" fill="#007DFC"/>
</g>
<defs>
<clipPath id="clip0_1_7081">
<rect width="202" height="40" fill="white"/>
</clipPath>
</defs>
</svg>
