<svg width="174" height="39" viewBox="0 0 174 39" fill="none" xmlns="http://www.w3.org/2000/svg">
<g clip-path="url(#clip0_1_7057)">
<path d="M50.203 20.282C50.2376 19.6158 50.2376 18.9482 50.203 18.282H12.254C12.246 18.448 12.239 18.615 12.235 18.782H4.285L4.281 19.032H0V19.532H4.28L4.286 19.782H12.235C12.239 19.95 12.245 20.116 12.255 20.282H23.15C23.1086 19.9503 23.0879 19.6163 23.088 19.282H39.088C39.088 19.621 39.068 19.955 39.026 20.282H50.203ZM50.124 17.282H38.837C38.7492 16.9417 38.639 16.6077 38.507 16.282H23.672C23.541 16.606 23.43 16.939 23.342 17.282H12.332C12.35 17.115 12.37 16.948 12.392 16.782H4.442L4.476 16.538H0V16.038H4.555L4.601 15.782H12.551C12.581 15.615 12.615 15.448 12.651 15.282H49.807C49.947 15.937 50.054 16.604 50.124 17.282ZM49.564 14.282H37.334C37.0456 13.922 36.7267 13.5874 36.381 13.282H25.797C25.452 13.588 25.132 13.922 24.844 14.282H12.894C12.939 14.115 12.987 13.948 13.037 13.782H5.087L5.175 13.501H0V13H5.342L5.42 12.781H13.37C13.43 12.613 13.494 12.447 13.56 12.281H48.897C49.155 12.931 49.378 13.6 49.564 14.282ZM48.467 11.282H13.99C14.068 11.114 14.148 10.948 14.231 10.782H6.282L6.423 10.506H0V10.006H6.694L6.821 9.782H14.771C14.868 9.614 14.968 9.447 15.07 9.282H47.387C47.785 9.924 48.147 10.592 48.467 11.282ZM12.332 21.282H50.125C50.054 21.96 49.947 22.628 49.807 23.282H38.019C38.204 22.962 38.368 22.628 38.508 22.282H23.67C23.81 22.628 23.973 22.962 24.158 23.282H12.65C12.6144 23.1158 12.5811 22.9491 12.55 22.782H4.601C4.58471 22.6941 4.56905 22.6061 4.554 22.518H0V22.018H4.475C4.46352 21.9394 4.45252 21.8607 4.442 21.782H12.392C12.3698 21.6156 12.3498 21.4489 12.332 21.282ZM12.893 24.282H49.563C49.378 24.965 49.155 25.632 48.897 26.282H34.965C35.4717 26.0007 35.9465 25.6655 36.381 25.282H25.797C26.2315 25.6655 26.7063 26.0007 27.213 26.282H13.56C13.4944 26.1162 13.431 25.9495 13.37 25.782H5.42L5.334 25.541H0V25.041H5.168C5.14072 24.9549 5.11406 24.8685 5.088 24.782H13.037C12.987 24.616 12.939 24.45 12.893 24.282ZM13.99 27.282H48.467C48.1473 27.9697 47.7867 28.6375 47.387 29.282H15.07C14.9674 29.1169 14.8674 28.9502 14.77 28.782H6.821C6.771 28.696 6.722 28.61 6.674 28.523H0V28.023H6.405L6.282 27.783H14.232C14.1489 27.6175 14.0682 27.4508 13.99 27.283V27.282ZM16.92 31.782C17.067 31.952 17.218 32.118 17.372 32.282H45.085C45.6752 31.6531 46.2221 30.9849 46.722 30.282H15.735C15.855 30.451 15.977 30.618 16.103 30.782H8.153L8.351 31.037H0V31.537H8.76C8.829 31.62 8.899 31.701 8.97 31.782H16.92ZM20.237 34.782C20.48 34.955 20.727 35.122 20.977 35.282H41.48C42.4004 34.6909 43.2683 34.0218 44.074 33.282H18.384C18.569 33.452 18.758 33.619 18.95 33.782H11C11.108 33.874 11.217 33.964 11.327 34.052H0V34.552H11.972C12.076 34.63 12.182 34.707 12.288 34.782H20.238H20.237ZM27.254 37.866C28.536 38.139 29.865 38.282 31.228 38.282C34.282 38.282 37.167 37.562 39.723 36.282H22.733C23.089 36.46 23.45 36.627 23.817 36.782H15.867C16.009 36.842 16.152 36.901 16.295 36.958H0V37.458H17.725C19.482 37.994 21.347 38.282 23.279 38.282C24.642 38.282 25.972 38.139 27.254 37.866ZM15.735 8.282H46.722C46.2221 7.57912 45.6752 6.91092 45.085 6.282H17.372C17.218 6.446 17.067 6.612 16.919 6.782H8.97L8.794 6.988H0V7.488H8.382C8.305 7.585 8.229 7.683 8.154 7.782H16.103C15.977 7.947 15.855 8.114 15.735 8.282ZM18.383 5.282H44.073C43.2676 4.54225 42.4001 3.87312 41.48 3.282H20.977C20.727 3.443 20.48 3.61 20.237 3.782H12.288C12.178 3.861 12.068 3.94 11.96 4.021H0V4.521H11.316C11.21 4.607 11.105 4.694 11.001 4.782H18.95C18.758 4.945 18.569 5.112 18.383 5.282ZM22.734 2.282H39.724C37.0869 0.962435 34.1778 0.27755 31.229 0.282C29.865 0.282 28.536 0.426 27.254 0.699C25.9473 0.421201 24.6149 0.281434 23.279 0.282C21.145 0.282 19.094 0.634 17.179 1.282H0V1.782H23.817C23.4508 1.93722 23.0896 2.10397 22.734 2.282ZM111.248 0C111.905 0 112.421 0.164 112.796 0.492C113.187 0.805 113.382 1.242 113.382 1.806C113.382 2.369 113.187 2.814 112.796 3.142C112.421 3.455 111.905 3.612 111.248 3.612C110.592 3.612 110.068 3.455 109.677 3.142C109.302 2.814 109.114 2.369 109.114 1.806C109.114 1.243 109.302 0.806 109.677 0.492C110.068 0.164 110.592 0 111.248 0ZM113.077 5.792V15.993C113.077 16.65 113.187 17.096 113.406 17.33C113.64 17.565 114.031 17.682 114.578 17.682V18.174C114.141 18.1526 113.703 18.137 113.265 18.127C112.664 18.0955 112.061 18.0799 111.459 18.08C110.85 18.08 110.232 18.096 109.607 18.127C109.138 18.1373 108.669 18.153 108.2 18.174V17.682C108.747 17.682 109.13 17.565 109.349 17.33C109.583 17.096 109.701 16.65 109.701 15.993V8.606C109.701 7.903 109.591 7.386 109.372 7.059C109.169 6.715 108.778 6.543 108.2 6.543V6.05C108.7 6.097 109.185 6.12 109.654 6.12C110.31 6.12 110.92 6.097 111.483 6.05C112.061 5.988 112.593 5.902 113.077 5.792Z" fill="#2F2352"/>
<path fill-rule="evenodd" clip-rule="evenodd" d="M119.677 7.94403V5.79203C119.193 5.90203 118.661 5.98803 118.083 6.05003C117.504 6.09703 116.894 6.12003 116.253 6.12003C115.784 6.12003 115.3 6.09703 114.799 6.05003V6.54303C115.362 6.54303 115.753 6.71503 115.972 7.05903C116.191 7.38703 116.3 7.90303 116.3 8.60603V20.332C116.3 20.957 116.191 21.379 115.972 21.598C115.769 21.817 115.409 21.926 114.893 21.926V22.419L116.136 22.349C116.707 22.3331 117.277 22.3251 117.848 22.325C118.645 22.325 119.396 22.333 120.099 22.348C120.818 22.38 121.381 22.403 121.788 22.418V21.926C121.131 21.926 120.615 21.801 120.24 21.551C119.865 21.317 119.677 20.832 119.677 20.097V17.747C119.883 17.919 120.125 18.061 120.404 18.174C120.904 18.394 121.459 18.503 122.069 18.503C122.898 18.503 123.64 18.354 124.297 18.057C124.965 17.7633 125.552 17.3129 126.009 16.744C126.493 16.15 126.861 15.423 127.111 14.563C127.377 13.703 127.51 12.703 127.51 11.561C127.51 10.264 127.322 9.18503 126.947 8.32503C126.572 7.44903 126.071 6.80103 125.446 6.37903C124.821 5.94127 124.075 5.71139 123.312 5.72203C122.405 5.72203 121.608 5.95603 120.92 6.42503C120.379 6.79003 119.965 7.29603 119.677 7.94503V7.94403ZM119.677 8.75003V17.251C119.807 17.405 119.964 17.533 120.146 17.635C120.443 17.791 120.779 17.869 121.155 17.869C121.858 17.869 122.413 17.635 122.82 17.166C123.226 16.681 123.515 16.009 123.687 15.149C123.875 14.274 123.969 13.234 123.969 12.03C123.969 10.686 123.883 9.63003 123.711 8.86403C123.539 8.09803 123.304 7.55103 123.007 7.22303C122.71 6.89403 122.351 6.73003 121.928 6.73003C121.366 6.73003 120.85 6.95003 120.381 7.38703C120.028 7.72703 119.793 8.18203 119.677 8.75003Z" fill="#2F2352"/>
<path d="M132.894 5.72191C133.551 5.72191 134.121 5.80791 134.606 5.97991C135.106 6.13591 135.466 6.29291 135.685 6.44891C136.216 6.80891 136.545 6.57391 136.67 5.74491H137.162C137.131 6.18291 137.107 6.72291 137.092 7.36291C137.076 7.98891 137.068 8.82491 137.068 9.87291H136.576C136.496 9.28656 136.346 8.71185 136.13 8.16091C135.931 7.62621 135.6 7.15024 135.169 6.77691C134.762 6.41691 134.231 6.23691 133.574 6.23691C133.121 6.23691 132.738 6.37091 132.425 6.63691C132.112 6.88691 131.956 7.25391 131.956 7.73891C131.956 8.20791 132.097 8.62191 132.378 8.98191C132.66 9.32591 133.019 9.66191 133.457 9.98991C133.91 10.3029 134.379 10.6389 134.864 10.9979C135.38 11.3889 135.849 11.7799 136.271 12.1709C136.676 12.5246 137.017 12.945 137.279 13.4139C137.53 13.8669 137.655 14.4059 137.655 15.0319C137.655 15.7349 137.451 16.3519 137.045 16.8839C136.638 17.3999 136.099 17.7989 135.427 18.0799C134.77 18.3619 134.035 18.5029 133.223 18.5029C132.796 18.5077 132.371 18.4604 131.956 18.3619C131.631 18.2809 131.316 18.1628 131.018 18.0099C130.815 17.9159 130.619 17.8299 130.432 17.7519C130.272 17.6642 130.108 17.586 129.939 17.5179C129.783 17.4709 129.642 17.5249 129.517 17.6819C129.408 17.8379 129.322 18.0569 129.259 18.3379H128.767C128.798 17.8379 128.822 17.2279 128.837 16.5089C128.853 15.7899 128.861 14.8359 128.861 13.6489H129.353C129.447 14.4929 129.619 15.2429 129.869 15.8989C130.119 16.5409 130.455 17.0489 130.877 17.4239C131.315 17.7839 131.862 17.9639 132.519 17.9639C132.785 17.9639 133.043 17.9089 133.293 17.7989C133.543 17.6889 133.746 17.5089 133.903 17.2589C134.075 17.0089 134.161 16.6889 134.161 16.2989C134.161 15.6099 133.934 15.0389 133.48 14.5859C133.043 14.1329 132.48 13.6399 131.792 13.1089C131.292 12.7019 130.815 12.3039 130.362 11.9129C129.942 11.5286 129.579 11.0865 129.283 10.5999C128.997 10.1004 128.852 9.53321 128.861 8.95791C128.861 8.25491 129.048 7.66091 129.423 7.17591C129.806 6.68585 130.318 6.3122 130.901 6.09691C131.535 5.84517 132.212 5.71786 132.894 5.72191ZM162.005 5.97991C161.598 5.80791 161.067 5.72191 160.41 5.72191C159.675 5.71444 158.949 5.89187 158.3 6.23791C157.659 6.56591 157.151 7.12091 156.775 7.90291V5.79291C156.291 5.90191 155.759 5.98791 155.181 6.04991C154.618 6.09691 154.008 6.11991 153.352 6.11991C152.883 6.11991 152.398 6.09691 151.898 6.04991V6.54291C152.476 6.54291 152.867 6.71491 153.07 7.05891C153.289 7.38691 153.398 7.90291 153.398 8.60591V15.9929C153.398 16.6499 153.281 17.0959 153.047 17.3299C152.828 17.5649 152.445 17.6819 151.898 17.6819V18.1739C152.367 18.1529 152.836 18.1372 153.305 18.1269C153.914 18.096 154.524 18.0804 155.134 18.0799C155.681 18.0799 156.213 18.0959 156.728 18.1269C157.26 18.1429 157.651 18.1589 157.901 18.1739V17.6819C157.495 17.6819 157.205 17.5649 157.033 17.3299C156.861 17.0959 156.775 16.6499 156.775 15.9929V9.47391C156.775 8.95791 156.877 8.49691 157.08 8.08991C157.299 7.66791 157.58 7.33991 157.924 7.10591C158.254 6.87572 158.647 6.75282 159.05 6.75391C159.41 6.75391 159.675 6.83991 159.847 7.01191C160.035 7.16791 160.16 7.39491 160.223 7.69191C160.285 7.97291 160.316 8.30891 160.316 8.69991V15.9929C160.316 16.6499 160.23 17.0959 160.058 17.3299C159.902 17.5649 159.613 17.6819 159.191 17.6819V18.1739C159.472 18.1589 159.886 18.1429 160.434 18.1269C161.543 18.0636 162.655 18.0636 163.764 18.1269C164.342 18.1429 164.772 18.1589 165.053 18.1739V17.6819C164.553 17.6819 164.201 17.5649 163.998 17.3299C163.795 17.0959 163.693 16.6499 163.693 15.9929V9.57791L163.692 9.50491L163.688 9.26791C163.724 8.87591 163.829 8.49336 163.998 8.13791C164.217 7.71491 164.498 7.37891 164.842 7.12891C165.186 6.87891 165.562 6.75391 165.968 6.75391C166.374 6.75391 166.672 6.83991 166.859 7.01191C167.062 7.16791 167.195 7.39491 167.258 7.69191C167.336 7.97291 167.375 8.30891 167.375 8.69991V15.9929C167.375 16.6499 167.289 17.0959 167.117 17.3299C166.961 17.5649 166.672 17.6819 166.249 17.6819V18.1739C166.531 18.1589 166.945 18.1429 167.492 18.1269C168.046 18.0954 168.602 18.0798 169.157 18.0799C169.736 18.0799 170.322 18.0959 170.916 18.1269C171.51 18.1429 171.956 18.1589 172.253 18.1739V17.6819C171.706 17.6819 171.315 17.5649 171.08 17.3299C170.861 17.0959 170.752 16.6499 170.752 15.9929V9.68491C170.752 8.90291 170.697 8.27791 170.588 7.80891C170.478 7.32391 170.299 6.93391 170.048 6.63691C169.798 6.35491 169.47 6.13691 169.063 5.97991C168.657 5.80791 168.125 5.72191 167.469 5.72191C166.672 5.72191 165.921 5.88591 165.218 6.21391C164.544 6.53591 163.998 7.14991 163.579 8.05591C163.565 7.97312 163.548 7.89076 163.529 7.80891C163.42 7.32391 163.24 6.93391 162.99 6.63691C162.74 6.35491 162.411 6.13691 162.005 5.97991ZM150.058 15.6179V5.79191C149.573 5.90191 149.042 5.98791 148.463 6.04991C147.901 6.09691 147.291 6.11991 146.634 6.11991C146.165 6.11991 145.681 6.09691 145.18 6.04991V6.54291C145.759 6.54291 146.15 6.71491 146.353 7.05891C146.572 7.38691 146.681 7.90291 146.681 8.60591V14.7499C146.681 15.2659 146.572 15.7349 146.353 16.1569C146.167 16.5433 145.884 16.8748 145.532 17.1189C145.204 17.3536 144.809 17.477 144.406 17.4709C144.016 17.4709 143.719 17.3919 143.515 17.2359C143.304 17.0515 143.157 16.8056 143.093 16.5329C143.027 16.193 142.995 15.8472 142.999 15.5009V5.79191C142.515 5.90191 141.983 5.98791 141.405 6.04991C140.842 6.09691 140.232 6.11991 139.576 6.11991C139.107 6.11991 138.622 6.09691 138.122 6.04991V6.54291C138.7 6.54291 139.091 6.71491 139.294 7.05891C139.513 7.38691 139.622 7.90291 139.622 8.60591V14.5389C139.622 15.3049 139.677 15.9309 139.787 16.4149C139.896 16.8999 140.084 17.2909 140.349 17.5879C140.584 17.8539 140.904 18.0729 141.311 18.2449C141.717 18.4159 142.249 18.5029 142.906 18.5029C143.719 18.5029 144.453 18.3379 145.11 18.0099C145.782 17.6659 146.306 17.1029 146.681 16.3219V18.4319C147.205 18.303 147.738 18.2167 148.276 18.1739C148.839 18.1269 149.448 18.1039 150.105 18.1039C150.59 18.1039 151.074 18.1269 151.559 18.1739V17.6819C150.996 17.6819 150.605 17.5179 150.386 17.1889C150.167 16.8449 150.058 16.3219 150.058 15.6189V15.6179Z" fill="#2F2352"/>
<path fill-rule="evenodd" clip-rule="evenodd" d="M104.696 6.35543C103.836 5.93343 102.835 5.72243 101.694 5.72243C100.584 5.72243 99.591 5.93343 98.716 6.35543C97.856 6.77743 97.176 7.45743 96.676 8.39543C96.191 9.33343 95.948 10.5764 95.948 12.1244C95.948 13.6724 96.191 14.9144 96.675 15.8534C97.175 16.7754 97.855 17.4474 98.715 17.8694C99.591 18.2914 100.584 18.5034 101.694 18.5034C102.835 18.5034 103.836 18.2914 104.696 17.8694C105.555 17.4474 106.228 16.7754 106.712 15.8534C107.197 14.9154 107.439 13.6724 107.439 12.1244C107.439 10.5764 107.197 9.33443 106.712 8.39543C106.228 7.45743 105.555 6.77743 104.696 6.35543ZM100.123 7.59843C100.545 6.66043 101.069 6.19143 101.694 6.19143C102.335 6.19143 102.859 6.66043 103.265 7.59843C103.687 8.52043 103.898 10.0294 103.898 12.1244C103.898 14.2194 103.687 15.7284 103.265 16.6504C102.859 17.5724 102.335 18.0344 101.694 18.0344C101.069 18.0344 100.545 17.5724 100.123 16.6504C99.701 15.7284 99.49 14.2194 99.49 12.1244C99.49 10.0294 99.7 8.52043 100.123 7.59843ZM88.301 22.5834C87.331 22.5834 86.464 22.4974 85.698 22.3254C84.948 22.1694 84.354 21.9194 83.916 21.5754C83.494 21.2464 83.283 20.8404 83.283 20.3554C83.283 19.8704 83.501 19.4334 83.939 19.0424C84.377 18.6674 85.026 18.3704 85.886 18.1514L86.096 18.5264C85.8275 18.728 85.6041 18.9835 85.44 19.2764C85.315 19.5584 85.252 19.8474 85.252 20.1444C85.252 20.8014 85.549 21.3014 86.144 21.6444C86.754 22.0044 87.574 22.1844 88.606 22.1844C89.309 22.1844 89.935 22.0904 90.482 21.9034C91.045 21.7154 91.482 21.4334 91.795 21.0594C92.124 20.6834 92.288 20.2224 92.288 19.6754C92.288 19.2064 92.116 18.8074 91.772 18.4794C91.428 18.1664 90.74 18.0104 89.708 18.0104H88.254C87.614 18.0104 87.05 17.9404 86.566 17.7994C86.096 17.6594 85.729 17.4394 85.463 17.1424C85.198 16.8304 85.065 16.4394 85.065 15.9704C85.065 15.3134 85.323 14.7354 85.839 14.2344C86.243 13.8424 86.801 13.4694 87.513 13.1164C87.0449 13.0582 86.5851 12.9458 86.143 12.7814C85.44 12.5154 84.885 12.1084 84.479 11.5614C84.072 11.0144 83.869 10.3114 83.869 9.45143C83.869 8.59143 84.072 7.88743 84.479 7.34043C84.885 6.77743 85.44 6.37043 86.144 6.12043C86.847 5.85543 87.644 5.72243 88.535 5.72243C89.427 5.72243 90.224 5.85543 90.927 6.12143C91.391 6.28543 91.789 6.51843 92.124 6.81843C92.323 6.53143 92.565 6.27543 92.85 6.05043C93.382 5.64443 93.953 5.44043 94.562 5.44043C95.062 5.44043 95.438 5.58143 95.688 5.86343C95.954 6.12843 96.087 6.48043 96.087 6.91843C96.087 7.38743 95.961 7.73843 95.711 7.97343C95.461 8.19343 95.18 8.30243 94.867 8.30243C94.5918 8.29878 94.3265 8.19903 94.117 8.02043C93.897 7.83243 93.773 7.55143 93.742 7.17643C93.715 6.84043 93.809 6.42443 94.024 5.92643C93.568 6.12043 93.216 6.34143 92.968 6.59043C92.781 6.77069 92.6177 6.97399 92.482 7.19543C92.52 7.24243 92.557 7.29143 92.592 7.34043C92.999 7.88743 93.202 8.59043 93.202 9.45043C93.202 10.3104 92.999 11.0144 92.592 11.5614C92.186 12.1084 91.631 12.5154 90.927 12.7814C90.224 13.0464 89.427 13.1794 88.535 13.1794C88.4016 13.1796 88.2682 13.1766 88.135 13.1704C87.924 13.3134 87.721 13.4654 87.527 13.6254C87.4065 13.7197 87.3098 13.8409 87.2447 13.9793C87.1796 14.1177 87.1478 14.2695 87.152 14.4224C87.152 14.9224 87.465 15.1724 88.09 15.1724H90.646C91.506 15.1724 92.272 15.2744 92.944 15.4774C93.632 15.6814 94.171 16.0174 94.562 16.4864C94.969 16.9394 95.172 17.5334 95.172 18.2684C95.172 19.0344 94.922 19.7454 94.422 20.4024C93.937 21.0594 93.187 21.5824 92.17 21.9734C91.154 22.3804 89.864 22.5834 88.301 22.5834ZM88.535 12.7574C88.958 12.7574 89.285 12.5234 89.52 12.0544C89.755 11.5694 89.872 10.7014 89.872 9.45143C89.872 8.20043 89.755 7.34043 89.52 6.87143C89.286 6.38643 88.958 6.14443 88.536 6.14443C88.129 6.14443 87.801 6.38643 87.551 6.87143C87.316 7.34043 87.199 8.20043 87.199 9.45143C87.199 10.7014 87.316 11.5694 87.551 12.0544C87.801 12.5234 88.129 12.7574 88.535 12.7574ZM80.247 6.35543C79.387 5.93343 78.387 5.72243 77.246 5.72243C76.136 5.72243 75.143 5.93343 74.268 6.35543C73.408 6.77743 72.728 7.45743 72.228 8.39543C71.743 9.33343 71.5 10.5764 71.5 12.1244C71.5 13.6724 71.743 14.9144 72.227 15.8534C72.727 16.7754 73.407 17.4474 74.267 17.8694C75.143 18.2914 76.136 18.5034 77.246 18.5034C78.387 18.5034 79.388 18.2914 80.247 17.8694C81.107 17.4474 81.779 16.7754 82.264 15.8534C82.749 14.9154 82.991 13.6724 82.991 12.1244C82.991 10.5764 82.749 9.33443 82.264 8.39543C81.78 7.45743 81.107 6.77743 80.247 6.35543ZM75.674 7.59843C76.097 6.66043 76.62 6.19143 77.246 6.19143C77.886 6.19143 78.41 6.66043 78.816 7.59843C79.239 8.52043 79.45 10.0294 79.45 12.1244C79.45 14.2194 79.239 15.7284 78.817 16.6504C78.41 17.5724 77.887 18.0344 77.246 18.0344C76.62 18.0344 76.096 17.5724 75.674 16.6504C75.252 15.7284 75.041 14.2194 75.041 12.1244C75.041 10.0294 75.252 8.52043 75.674 7.59843Z" fill="#2F2352"/>
<path d="M65.1841 1.57129V2.04129C64.6531 2.05629 64.2461 2.11829 63.9651 2.22829C63.8365 2.27184 63.7202 2.34574 63.6262 2.44374C63.5322 2.54175 63.4632 2.66096 63.4251 2.79129C63.3321 3.05629 63.2851 3.47929 63.2851 4.05729V15.9703C63.2851 16.4543 63.3161 16.8143 63.3791 17.0493C63.4571 17.2833 63.5981 17.4393 63.8011 17.5183C64.0201 17.5963 64.3411 17.6353 64.7621 17.6353H65.9121C66.4421 17.6353 66.9431 17.5103 67.4121 17.2603C67.8821 17.0103 68.3031 16.6583 68.6781 16.2043C69.0736 15.7001 69.3902 15.1386 69.6171 14.5393C69.8671 13.8993 70.0541 13.1873 70.1791 12.4053H70.7191C70.6721 12.9373 70.6491 13.6253 70.6491 14.4693C70.6491 14.8293 70.6561 15.3523 70.6721 16.0403C70.6881 16.7283 70.7341 17.4403 70.8121 18.1743C69.9138 18.1412 69.015 18.1255 68.1161 18.1273C67.1161 18.1123 66.2241 18.1043 65.4421 18.1043H63.9421C63.3321 18.1043 62.6751 18.1123 61.9721 18.1273C61.2681 18.1273 60.5571 18.1353 59.8381 18.1513C59.1181 18.1513 58.4381 18.1593 57.7981 18.1743V17.7053C58.2981 17.6743 58.6731 17.6113 58.9231 17.5183C59.1731 17.4243 59.3371 17.2363 59.4161 16.9553C59.5091 16.6733 59.5561 16.2513 59.5561 15.6883V4.05729C59.5561 3.47829 59.5091 3.05729 59.4161 2.79129C59.3853 2.6612 59.3217 2.54117 59.2314 2.44261C59.1411 2.34406 59.027 2.27028 58.9001 2.22829C58.6501 2.11829 58.2821 2.05629 57.7981 2.04029V1.57129C59.0326 1.61703 60.2678 1.64037 61.5031 1.64129C62.1911 1.64129 62.8631 1.63429 63.5191 1.61829C64.1921 1.60229 64.7471 1.58729 65.1841 1.57129Z" fill="#2F2352"/>
<path fill-rule="evenodd" clip-rule="evenodd" d="M169.871 37.5527C169.838 37.3847 169.86 37.1657 169.939 36.8957L173.242 24.9287C172.713 25.1456 172.166 25.3146 171.607 25.4337C171.034 25.5467 170.377 25.6077 169.635 25.6197L169.517 25.9737C170.068 25.9737 170.411 26.0637 170.546 26.2437C170.68 26.4237 170.697 26.7037 170.596 27.0857L169.814 30.0347C169.765 29.8924 169.68 29.7651 169.568 29.6647C169.377 29.4847 169.113 29.3947 168.776 29.3947C168.102 29.3947 167.478 29.5467 166.905 29.8497C166.329 30.1646 165.81 30.5751 165.371 31.0637C164.91 31.5588 164.519 32.1146 164.208 32.7157C163.902 33.3006 163.659 33.9164 163.483 34.5527C163.323 35.1008 163.238 35.6679 163.23 36.2387C163.23 36.7777 163.315 37.2217 163.483 37.5697C163.652 37.9067 163.882 38.1597 164.174 38.3277C164.466 38.4857 164.792 38.5637 165.152 38.5637C165.702 38.5637 166.197 38.4017 166.635 38.0757C167.073 37.7387 167.483 37.2217 167.866 36.5247C168.026 36.2407 168.187 35.9217 168.347 35.5677L168.236 35.9857C168.134 36.315 168.067 36.6537 168.034 36.9967C168.012 37.2887 168.034 37.5367 168.102 37.7387C168.236 38.2887 168.652 38.5647 169.349 38.5647C169.607 38.5647 169.871 38.5137 170.141 38.4127C170.411 38.3117 170.663 38.1377 170.899 37.8897C171.147 37.6427 171.343 37.2897 171.489 36.8277L171.894 35.5977H171.574L171.304 36.3557C171.102 36.9297 170.911 37.3167 170.731 37.5187C170.562 37.7107 170.388 37.8057 170.208 37.8057C170.017 37.8057 169.905 37.7217 169.871 37.5527ZM168.972 33.2127C168.845 33.6237 168.707 34.0147 168.557 34.3837C168.276 35.1037 167.978 35.7217 167.663 36.2387C167.36 36.7437 167.062 37.1367 166.77 37.4187C166.478 37.6877 166.219 37.8227 165.995 37.8227C165.781 37.8227 165.624 37.7217 165.523 37.5197C165.433 37.3057 165.388 36.9857 165.388 36.5587C165.388 35.9517 165.455 35.3337 165.59 34.7047C165.725 34.0647 165.91 33.4517 166.146 32.8677C166.363 32.3196 166.634 31.7944 166.955 31.2997C167.259 30.8277 167.579 30.4567 167.916 30.1867C168.264 29.9167 168.607 29.7827 168.944 29.7827C169.169 29.7827 169.349 29.8617 169.484 30.0187C169.578 30.1207 169.65 30.2687 169.7 30.4647L168.972 33.2127Z" fill="#2F2352"/>
<path d="M158.655 38.3276H156.582L158.604 31.0636C158.706 30.7266 158.739 30.4906 158.706 30.3556C158.672 30.2206 158.571 30.1536 158.402 30.1536C158.189 30.1536 157.992 30.2606 157.812 30.4736C157.632 30.6866 157.447 31.0636 157.256 31.6036L156.969 32.3946H156.649L157.087 31.1306C157.245 30.6806 157.441 30.3336 157.677 30.0856C157.913 29.8276 158.172 29.6476 158.453 29.5466C158.734 29.4456 159.02 29.3946 159.312 29.3946C159.672 29.3946 159.936 29.4676 160.104 29.6146C160.284 29.7606 160.397 29.9516 160.442 30.1876C160.499 30.4419 160.51 30.7043 160.475 30.9626C160.453 31.2326 160.408 31.4966 160.34 31.7546L160.069 32.8116L160.138 32.6316C160.453 31.8336 160.756 31.1986 161.048 30.7266C161.352 30.2436 161.672 29.9006 162.009 29.6986C162.339 29.4979 162.719 29.3926 163.105 29.3946C163.509 29.3946 163.818 29.5126 164.032 29.7486C164.257 29.9846 164.369 30.2766 164.369 30.6256C164.369 30.9056 164.301 31.1706 164.167 31.4176C164.036 31.6493 163.851 31.8459 163.627 31.9906C163.414 32.1256 163.167 32.1926 162.886 32.1926C162.605 32.1926 162.38 32.1196 162.211 31.9736C162.054 31.8276 161.975 31.6136 161.975 31.3336C161.975 31.0856 162.032 30.8616 162.144 30.6586C162.252 30.4609 162.402 30.2887 162.582 30.1536C162.762 30.0076 162.959 29.9066 163.172 29.8496C163.148 29.8264 163.12 29.8092 163.088 29.7996C163.05 29.7877 163.01 29.7819 162.97 29.7826C162.723 29.7826 162.47 29.8726 162.211 30.0526C161.953 30.2206 161.683 30.4966 161.402 30.8786C161.121 31.2606 160.835 31.7656 160.543 32.3946C160.213 33.1383 159.921 33.8979 159.666 34.6706C159.539 35.0446 159.411 35.4466 159.283 35.8776L158.655 38.3276Z" fill="#2F2352"/>
<path fill-rule="evenodd" clip-rule="evenodd" d="M152.357 35.7237L152.286 35.9857C152.179 36.3663 152.106 36.7554 152.067 37.1487C152.033 37.5087 152.089 37.8117 152.235 38.0587C152.46 38.3957 152.842 38.5647 153.381 38.5647C153.64 38.5647 153.898 38.5137 154.157 38.4127C154.426 38.3117 154.679 38.1377 154.915 37.8897C155.151 37.6317 155.348 37.2717 155.505 36.8117L155.927 35.5817H155.606L155.353 36.3397C155.151 36.9237 154.955 37.3117 154.764 37.5027C154.573 37.6927 154.387 37.7887 154.207 37.7887C154.061 37.7887 153.966 37.7437 153.921 37.6537C153.886 37.5392 153.874 37.4188 153.887 37.2997C153.909 37.1568 153.943 37.016 153.988 36.8787L156.163 29.3947C155.824 29.4756 155.481 29.5321 155.134 29.5637C154.786 29.5977 154.41 29.6197 154.005 29.6307L153.761 30.5327C153.751 30.3037 153.684 30.0808 153.567 29.8837C153.479 29.7301 153.351 29.6034 153.196 29.5172C153.042 29.431 152.867 29.3887 152.69 29.3947C152.196 29.3947 151.702 29.5467 151.207 29.8497C150.681 30.1803 150.209 30.5897 149.808 31.0637C149.354 31.5806 148.959 32.1456 148.628 32.7487C148.296 33.3535 148.031 33.9922 147.836 34.6537C147.652 35.2489 147.556 35.8678 147.55 36.4907C147.55 37.1207 147.696 37.6257 147.988 38.0077C148.28 38.3787 148.729 38.5637 149.336 38.5637C149.763 38.5637 150.173 38.4407 150.567 38.1937C150.971 37.9457 151.353 37.5357 151.713 36.9637C151.936 36.6187 152.15 36.2057 152.357 35.7237ZM150.904 37.4347C150.645 37.6707 150.415 37.7887 150.213 37.7887C150.044 37.7887 149.915 37.7047 149.825 37.5357C149.746 37.3557 149.707 37.0587 149.707 36.6427C149.707 36.0467 149.774 35.4347 149.909 34.8057C150.044 34.1757 150.224 33.5697 150.449 32.9857C150.685 32.4007 150.943 31.8787 151.224 31.4177C151.505 30.9577 151.786 30.5917 152.067 30.3217C152.359 30.0517 152.634 29.9177 152.893 29.9177C153.162 29.9177 153.353 30.0527 153.466 30.3217C153.578 30.5657 153.607 30.8927 153.553 31.3017L153.055 33.1437L153.112 32.8507C152.932 33.5697 152.718 34.2327 152.471 34.8397C152.256 35.3824 151.997 35.9065 151.696 36.4067C151.426 36.8447 151.162 37.1877 150.904 37.4347ZM145.284 36.8957C145.205 37.1657 145.183 37.3847 145.217 37.5527C145.25 37.7217 145.363 37.8057 145.554 37.8057C145.734 37.8057 145.908 37.7107 146.076 37.5197C146.256 37.3167 146.447 36.9297 146.649 36.3557L146.919 35.5977H147.239L146.835 36.8277C146.689 37.2887 146.492 37.6427 146.245 37.8897C146.035 38.1194 145.775 38.2983 145.486 38.4127C145.233 38.5108 144.965 38.5623 144.694 38.5647C143.998 38.5647 143.582 38.2887 143.447 37.7387C143.376 37.4982 143.353 37.246 143.38 36.9967C143.402 36.7047 143.469 36.3667 143.582 35.9857L143.693 35.5677C143.532 35.9217 143.371 36.2407 143.211 36.5247C142.829 37.2217 142.419 37.7387 141.981 38.0747C141.554 38.3973 141.032 38.5695 140.497 38.5647C140.138 38.5647 139.812 38.4847 139.52 38.3287C139.219 38.1506 138.978 37.8862 138.829 37.5697C138.66 37.2217 138.576 36.7777 138.576 36.2387C138.576 35.7217 138.66 35.1587 138.829 34.5527C138.997 33.9347 139.239 33.3227 139.553 32.7157C139.864 32.1148 140.255 31.5591 140.716 31.0637C141.177 30.5577 141.688 30.1537 142.25 29.8497C142.826 29.5456 143.469 29.3892 144.121 29.3947C144.458 29.3947 144.722 29.4847 144.913 29.6647C145.023 29.7617 145.106 29.8847 145.16 30.0347L145.941 27.0857C146.043 26.7037 146.026 26.4227 145.891 26.2427C145.756 26.0627 145.413 25.9727 144.863 25.9727L144.981 25.6197C145.642 25.6159 146.302 25.5537 146.953 25.4337C147.512 25.3146 148.059 25.1456 148.588 24.9287L145.284 36.8957ZM143.902 34.3837C144.052 34.0137 144.191 33.6237 144.317 33.2127L145.046 30.4647C145.011 30.3007 144.936 30.1476 144.829 30.0187C144.763 29.9412 144.68 29.8798 144.586 29.8389C144.493 29.798 144.392 29.7788 144.29 29.7827C143.953 29.7827 143.61 29.9177 143.262 30.1867C142.924 30.4567 142.604 30.8277 142.301 31.2997C141.98 31.7939 141.709 32.3188 141.492 32.8667C141.252 33.4617 141.066 34.0768 140.936 34.7047C140.803 35.3138 140.735 35.9353 140.733 36.5587C140.733 36.9857 140.778 37.3057 140.868 37.5187C140.969 37.7217 141.127 37.8227 141.34 37.8227C141.565 37.8227 141.823 37.6877 142.115 37.4177C142.408 37.1377 142.705 36.7437 143.009 36.2377C143.359 35.6464 143.658 35.0262 143.902 34.3837Z" fill="#2F2352"/>
<path d="M129.294 38.3275H131.367L131.562 37.5655L131.552 37.6205C131.766 36.8335 132.007 36.0755 132.277 35.3445C132.539 34.6469 132.831 33.9609 133.153 33.2885C133.457 32.6585 133.76 32.1085 134.064 31.6365C134.367 31.1645 134.659 30.7995 134.94 30.5405C135.221 30.2705 135.479 30.1365 135.715 30.1365C135.906 30.1365 136.024 30.2035 136.069 30.3385C136.116 30.4917 136.121 30.6544 136.086 30.8105C136.052 30.9932 136.007 31.1735 135.951 31.3505L134.418 35.9855C134.26 36.4575 134.17 36.8615 134.148 37.1985C134.125 37.5355 134.187 37.8115 134.333 38.0245C134.446 38.1935 134.603 38.3225 134.805 38.4125C135.019 38.5125 135.272 38.5645 135.564 38.5645C135.833 38.5645 136.103 38.5135 136.373 38.4125C136.654 38.3225 136.912 38.1535 137.148 37.9065C137.395 37.6595 137.598 37.2995 137.755 36.8275L138.176 35.5975H137.856L137.586 36.3555C137.373 36.9405 137.171 37.3275 136.98 37.5185C136.8 37.7105 136.626 37.8055 136.457 37.8055C136.277 37.8055 136.165 37.7325 136.12 37.5855C136.075 37.4295 136.103 37.1985 136.204 36.8955L137.856 31.9395C138.002 31.5015 138.075 31.0915 138.075 30.7095C138.086 30.3165 137.98 30.0015 137.755 29.7655C137.541 29.5185 137.159 29.3955 136.609 29.3955C136.193 29.3955 135.794 29.4855 135.412 29.6645C135.03 29.8445 134.659 30.1585 134.3 30.6085C133.94 31.0465 133.569 31.6425 133.187 32.3945C132.933 32.9018 132.701 33.4192 132.49 33.9455L133.052 31.7545C133.12 31.4845 133.17 31.2145 133.204 30.9455C133.238 30.6655 133.226 30.4115 133.17 30.1865C133.116 29.9542 132.978 29.75 132.783 29.6135C132.592 29.4675 132.311 29.3945 131.94 29.3945C131.49 29.3945 131.08 29.5185 130.709 29.7655C130.339 30.0125 130.035 30.4675 129.799 31.1305L129.361 32.3945H129.681L129.968 31.6025C130.17 31.0525 130.355 30.6755 130.524 30.4735C130.704 30.2605 130.9 30.1535 131.114 30.1535C131.271 30.1535 131.367 30.1985 131.401 30.2885C131.445 30.3785 131.457 30.4905 131.434 30.6255C131.409 30.7734 131.375 30.9196 131.333 31.0635L129.294 38.3275Z" fill="#2F2352"/>
<path fill-rule="evenodd" clip-rule="evenodd" d="M124.998 35.9855L125.069 35.7235C124.889 36.1539 124.674 36.5687 124.425 36.9635C124.065 37.5355 123.683 37.9465 123.278 38.1935C122.885 38.4405 122.475 38.5635 122.048 38.5635C121.441 38.5635 120.992 38.3785 120.7 38.0075C120.407 37.6255 120.261 37.1205 120.261 36.4905C120.261 35.9065 120.357 35.2945 120.548 34.6535C120.743 33.992 121.008 33.3533 121.34 32.7485C121.67 32.1452 122.066 31.5802 122.52 31.0635C122.921 30.5896 123.393 30.1801 123.919 29.8495C124.413 29.5465 124.908 29.3945 125.402 29.3945C125.784 29.3945 126.076 29.5575 126.279 29.8845C126.387 30.0515 126.452 30.2675 126.473 30.5325L126.717 29.6305C127.121 29.6195 127.498 29.5975 127.846 29.5635C128.206 29.5295 128.548 29.4735 128.874 29.3945L126.7 36.8795C126.654 37.0167 126.62 37.1575 126.599 37.3005C126.586 37.4196 126.598 37.5401 126.633 37.6545C126.678 37.7445 126.773 37.7895 126.919 37.7895C127.099 37.7895 127.284 37.6945 127.475 37.5035C127.666 37.3125 127.863 36.9235 128.065 36.3405L128.318 35.5815H128.638L128.217 36.8115C128.06 37.2725 127.863 37.6315 127.627 37.8915C127.417 38.1206 127.158 38.2991 126.869 38.4135C126.622 38.5125 126.359 38.564 126.093 38.5655C125.554 38.5655 125.172 38.3965 124.947 38.0595C124.801 37.8125 124.745 37.5095 124.779 37.1495C124.818 36.7563 124.892 36.3661 124.998 35.9855ZM122.924 37.7885C123.127 37.7885 123.357 37.6705 123.616 37.4345C123.874 37.1875 124.138 36.8445 124.408 36.4065C124.677 35.9685 124.936 35.4465 125.183 34.8395C125.43 34.2325 125.644 33.5695 125.824 32.8495L125.767 33.1435L126.265 31.3025C126.318 30.8925 126.289 30.5655 126.178 30.3225C126.065 30.0525 125.874 29.9175 125.604 29.9175C125.346 29.9175 125.071 30.0525 124.779 30.3215C124.498 30.5915 124.217 30.9565 123.936 31.4175C123.655 31.8775 123.396 32.4005 123.16 32.9845C122.934 33.5764 122.753 34.1849 122.621 34.8045C122.489 35.4083 122.421 36.0244 122.419 36.6425C122.419 37.0585 122.458 37.3565 122.537 37.5355C122.627 37.7045 122.756 37.7885 122.924 37.7885Z" fill="#2F2352"/>
<path d="M121.43 29.9682L121.481 29.6312H119.473L120.267 26.8672C119.935 26.949 119.597 27.0055 119.256 27.0362C118.908 27.0692 118.531 27.0922 118.127 27.1032L117.402 29.6312H115.868L115.784 29.9682H117.306L115.581 35.9862C115.435 36.4802 115.385 36.9242 115.43 37.3172C115.486 37.6992 115.643 38.0032 115.902 38.2272C116.171 38.4522 116.559 38.5652 117.065 38.5652C117.638 38.5652 118.132 38.4132 118.548 38.1092C118.964 37.8062 119.29 37.3062 119.526 36.6092L119.863 35.5982H119.542L119.29 36.2892C119.087 36.8512 118.863 37.2442 118.615 37.4692C118.379 37.6942 118.143 37.8062 117.907 37.8062C117.814 37.8093 117.722 37.791 117.637 37.7529C117.553 37.7147 117.478 37.6577 117.419 37.5862C117.306 37.4412 117.295 37.2112 117.385 36.8962L119.376 29.9682H121.43ZM115.848 26.2772C115.736 26.5692 115.584 26.9972 115.393 27.5582C115.213 28.1082 115.034 28.8282 114.854 29.7152H114.517C114.55 29.5582 114.573 29.3952 114.584 29.2272C114.606 29.0764 114.617 28.9244 114.618 28.7722C114.618 28.3332 114.528 27.9522 114.348 27.6262C114.175 27.2843 113.898 27.0065 113.556 26.8332C113.208 26.6312 112.758 26.5302 112.208 26.5302C111.612 26.5302 111.106 26.6872 110.691 27.0022C110.275 27.3052 110.067 27.7942 110.067 28.4682C110.067 28.8842 110.162 29.2782 110.353 29.6482C110.556 30.0082 110.809 30.3622 111.112 30.7102C111.427 31.0472 111.758 31.3902 112.106 31.7382C112.455 32.0752 112.781 32.4242 113.084 32.7832C113.387 33.1432 113.635 33.5252 113.826 33.9292C114.028 34.3232 114.129 34.7552 114.129 35.2272C114.129 35.8232 113.983 36.3342 113.691 36.7612C113.406 37.1806 113.032 37.5317 112.595 37.7892C112.137 38.051 111.643 38.2441 111.129 38.3622C110.634 38.4944 110.124 38.5626 109.612 38.5652C109.106 38.5652 108.685 38.5252 108.348 38.4472C108.06 38.3929 107.782 38.2962 107.522 38.1602C107.301 38.0392 107.082 37.9159 106.864 37.7902C106.765 37.7069 106.65 37.6437 106.527 37.6042C106.448 37.5647 106.363 37.5416 106.275 37.5362C106.128 37.5362 106.005 37.6092 105.904 37.7562C105.771 37.9757 105.659 38.2066 105.567 38.4462H105.229C105.507 37.7608 105.739 37.0571 105.921 36.3402C106.055 35.8232 106.207 35.1772 106.376 34.4012H106.713C106.666 34.6244 106.627 34.8492 106.595 35.0752C106.561 35.3002 106.55 35.5252 106.561 35.7502C106.595 36.5362 106.836 37.1432 107.286 37.5702C107.747 37.9972 108.421 38.2102 109.308 38.2102C110.061 38.2102 110.629 38.0532 111.011 37.7392C111.393 37.4132 111.584 36.9412 111.584 36.3232C111.584 35.8512 111.494 35.4232 111.314 35.0422C111.144 34.6459 110.917 34.2766 110.64 33.9462C110.354 33.6043 110.056 33.2727 109.747 32.9522C109.437 32.6316 109.139 32.2997 108.853 31.9572C108.577 31.6168 108.345 31.2433 108.162 30.8452C107.978 30.4196 107.886 29.9598 107.893 29.4962C107.893 28.9352 108.011 28.4462 108.247 28.0302C108.485 27.6244 108.806 27.274 109.19 27.0022C109.584 26.7212 110.023 26.5101 110.488 26.3782C110.941 26.2352 111.412 26.1614 111.887 26.1592C112.494 26.1592 112.994 26.2322 113.387 26.3792C113.781 26.5242 114.118 26.6992 114.399 26.9012L114.719 27.1032C114.82 27.1482 114.899 27.1702 114.955 27.1702C115.112 27.1702 115.298 26.8732 115.511 26.2772H115.848Z" fill="#2F2352"/>
<path fill-rule="evenodd" clip-rule="evenodd" d="M99.578 37.5527C99.544 37.3847 99.567 37.1657 99.646 36.8957L102.949 24.9287C102.42 25.1456 101.873 25.3146 101.314 25.4337C100.741 25.5467 100.084 25.6077 99.342 25.6197L99.224 25.9737C99.774 25.9737 100.118 26.0637 100.252 26.2437C100.387 26.4237 100.404 26.7037 100.303 27.0857L99.521 30.0347C99.4719 29.8924 99.3872 29.7651 99.275 29.6647C99.084 29.4847 98.82 29.3947 98.483 29.3947C97.808 29.3947 97.185 29.5467 96.612 29.8497C96.0356 30.1646 95.5169 30.5751 95.078 31.0637C94.6169 31.5588 94.2256 32.1146 93.915 32.7157C93.6089 33.3006 93.3659 33.9164 93.19 34.5527C93.03 35.1007 92.9449 35.6679 92.937 36.2387C92.937 36.7777 93.022 37.2217 93.19 37.5697C93.359 37.9067 93.589 38.1597 93.881 38.3277C94.173 38.4857 94.499 38.5637 94.859 38.5637C95.409 38.5637 95.904 38.4017 96.342 38.0757C96.78 37.7387 97.19 37.2217 97.572 36.5247C97.732 36.2407 97.893 35.9217 98.054 35.5677L97.944 35.9857C97.8418 36.3148 97.7737 36.6536 97.741 36.9967C97.7142 37.246 97.7369 37.4982 97.808 37.7387C97.943 38.2887 98.358 38.5647 99.056 38.5647C99.314 38.5647 99.578 38.5137 99.848 38.4127C100.118 38.3117 100.37 38.1377 100.606 37.8897C100.854 37.6427 101.05 37.2897 101.196 36.8277L101.601 35.5977H101.281L101.011 36.3557C100.809 36.9297 100.618 37.3167 100.438 37.5187C100.269 37.7107 100.095 37.8057 99.915 37.8057C99.725 37.8057 99.612 37.7217 99.578 37.5527ZM98.678 33.2127C98.552 33.6237 98.414 34.0147 98.263 34.3837C97.983 35.1037 97.685 35.7217 97.37 36.2387C97.067 36.7437 96.769 37.1367 96.477 37.4187C96.185 37.6877 95.927 37.8227 95.701 37.8227C95.488 37.8227 95.331 37.7217 95.23 37.5197C95.14 37.3057 95.095 36.9857 95.095 36.5587C95.095 35.9517 95.162 35.3337 95.297 34.7047C95.432 34.0647 95.617 33.4517 95.853 32.8677C96.0705 32.3195 96.3418 31.7943 96.663 31.2997C96.966 30.8277 97.286 30.4567 97.623 30.1867C97.971 29.9167 98.314 29.7827 98.651 29.7827C98.876 29.7827 99.056 29.8617 99.191 30.0187C99.285 30.1207 99.357 30.2687 99.407 30.4647L98.678 33.2127Z" fill="#2F2352"/>
<path d="M85.728 38.3275H83.655L85.695 31.0635C85.74 30.9065 85.773 30.7605 85.795 30.6255C85.8201 30.5125 85.8085 30.3945 85.762 30.2885C85.728 30.1985 85.632 30.1535 85.475 30.1535C85.262 30.1535 85.065 30.2605 84.885 30.4735C84.717 30.6755 84.531 31.0525 84.329 31.6035L84.043 32.3945H83.723L84.161 31.1305C84.397 30.4675 84.701 30.0125 85.071 29.7655C85.441 29.5185 85.851 29.3955 86.301 29.3955C86.672 29.3955 86.953 29.4675 87.144 29.6135C87.3399 29.7499 87.4782 29.9541 87.532 30.1865C87.588 30.4115 87.599 30.6645 87.566 30.9455C87.5317 31.218 87.4809 31.4882 87.414 31.7545L86.852 33.9465C87.09 33.3575 87.322 32.8415 87.549 32.3945C87.931 31.6425 88.301 31.0465 88.661 30.6085C89.021 30.1585 89.391 29.8445 89.773 29.6645C90.156 29.4845 90.554 29.3945 90.97 29.3945C91.52 29.3945 91.903 29.5185 92.116 29.7655C92.341 30.0015 92.448 30.3155 92.436 30.7095C92.436 31.0915 92.364 31.5015 92.217 31.9395L90.566 36.8955C90.464 37.1985 90.436 37.4295 90.481 37.5855C90.526 37.7325 90.639 37.8055 90.819 37.8055C90.987 37.8055 91.161 37.7105 91.341 37.5195C91.532 37.3275 91.734 36.9395 91.948 36.3555L92.218 35.5975H92.538L92.116 36.8275C91.959 37.2995 91.756 37.6595 91.51 37.9075C91.2982 38.1388 91.0312 38.3125 90.734 38.4125C90.4758 38.5116 90.2017 38.5631 89.925 38.5645C89.633 38.5645 89.38 38.5135 89.167 38.4125C88.964 38.3225 88.807 38.1925 88.695 38.0245C88.549 37.8115 88.487 37.5355 88.509 37.1985C88.532 36.8615 88.622 36.4575 88.779 35.9855L90.313 31.3505C90.369 31.1705 90.414 30.9905 90.448 30.8105C90.4834 30.6544 90.4775 30.4917 90.431 30.3385C90.386 30.2035 90.268 30.1365 90.077 30.1365C89.841 30.1365 89.582 30.2715 89.302 30.5405C89.021 30.7995 88.728 31.1645 88.425 31.6365C88.0887 32.1684 87.7848 32.72 87.515 33.2885C87.212 33.9185 86.919 34.6025 86.638 35.3445C86.368 36.0745 86.128 36.8335 85.914 37.6205L85.924 37.5655L85.728 38.3275Z" fill="#2F2352"/>
<path fill-rule="evenodd" clip-rule="evenodd" d="M79.43 35.7241L79.36 35.9861C79.2538 36.3668 79.1802 36.7559 79.14 37.1491C79.106 37.5091 79.162 37.8121 79.308 38.0591C79.533 38.3961 79.915 38.5651 80.455 38.5651C80.7432 38.563 81.0279 38.5021 81.2917 38.386C81.5555 38.2699 81.7928 38.1012 81.989 37.8901C82.225 37.6321 82.421 37.2721 82.579 36.8121L82.999 35.5821H82.679L82.427 36.3401C82.224 36.9241 82.027 37.3121 81.837 37.5031C81.646 37.6931 81.46 37.7891 81.281 37.7891C81.134 37.7891 81.039 37.7441 80.994 37.6541C80.9588 37.5396 80.9472 37.4191 80.96 37.3001C80.983 37.1541 81.016 37.0141 81.062 36.8791L83.236 29.3951C82.8978 29.4759 82.5543 29.5324 82.208 29.5641C81.859 29.5981 81.483 29.6201 81.078 29.6311L80.834 30.5331C80.8236 30.3041 80.757 30.0812 80.64 29.8841C80.5522 29.7306 80.4243 29.604 80.27 29.5178C80.1156 29.4316 79.9407 29.3892 79.764 29.3951C79.269 29.3951 78.774 29.5471 78.28 29.8501C77.786 30.1541 77.32 30.5581 76.881 31.0641C76.427 31.5807 76.0313 32.1458 75.701 32.7491C75.3695 33.3539 75.104 33.9925 74.909 34.6541C74.7251 35.2493 74.6288 35.8681 74.623 36.4911C74.623 37.1211 74.769 37.6261 75.061 38.0081C75.353 38.3791 75.803 38.5641 76.409 38.5641C76.836 38.5641 77.247 38.4411 77.639 38.1941C78.044 37.9461 78.427 37.5361 78.786 36.9641C79.009 36.6191 79.223 36.2061 79.43 35.7241ZM77.977 37.4351C77.719 37.6711 77.488 37.7891 77.286 37.7891C77.117 37.7891 76.988 37.7051 76.898 37.5361C76.82 37.3561 76.78 37.0591 76.78 36.6431C76.78 36.0471 76.848 35.4351 76.983 34.8061C77.117 34.1761 77.297 33.5701 77.522 32.9861C77.758 32.4011 78.016 31.8791 78.297 31.4181C78.578 30.9581 78.859 30.5921 79.14 30.3221C79.432 30.0521 79.707 29.9181 79.966 29.9181C80.236 29.9181 80.426 30.0531 80.539 30.3221C80.651 30.5661 80.679 30.8931 80.626 31.3021L80.128 33.1441L80.185 32.8511C80.005 33.5701 79.792 34.2331 79.545 34.8401C79.297 35.4461 79.039 35.9691 78.769 36.4071C78.499 36.8451 78.235 37.1881 77.977 37.4351Z" fill="#2F2352"/>
<path d="M70.115 38.3276H68.042L70.064 31.0636C70.165 30.7266 70.199 30.4906 70.165 30.3556C70.132 30.2206 70.031 30.1536 69.862 30.1536C69.649 30.1536 69.452 30.2606 69.272 30.4736C69.092 30.6866 68.907 31.0636 68.716 31.6036L68.429 32.3946H68.109L68.547 31.1306C68.705 30.6806 68.901 30.3336 69.137 30.0856C69.373 29.8276 69.632 29.6476 69.913 29.5466C70.193 29.4456 70.48 29.3946 70.773 29.3946C71.132 29.3946 71.396 29.4676 71.564 29.6146C71.7427 29.758 71.8629 29.9617 71.902 30.1876C71.958 30.4236 71.969 30.6816 71.935 30.9626C71.913 31.2326 71.868 31.4966 71.8 31.7546L71.53 32.8116L71.557 32.7386L71.598 32.6316C71.913 31.8336 72.216 31.1986 72.508 30.7266C72.812 30.2436 73.132 29.9006 73.469 29.6986C73.7992 29.4979 74.1786 29.3926 74.565 29.3946C74.969 29.3946 75.278 29.5126 75.492 29.7486C75.716 29.9846 75.829 30.2766 75.829 30.6256C75.829 30.9056 75.761 31.1706 75.626 31.4176C75.4952 31.6493 75.3103 31.8459 75.087 31.9906C74.8642 32.1279 74.6066 32.198 74.345 32.1926C74.065 32.1926 73.84 32.1196 73.671 31.9736C73.514 31.8276 73.435 31.6136 73.435 31.3336C73.435 31.0856 73.491 30.8616 73.604 30.6586C73.716 30.4566 73.862 30.2886 74.042 30.1536C74.222 30.0076 74.418 29.9066 74.632 29.8496C74.6083 29.8265 74.5795 29.8094 74.548 29.7996C74.5256 29.792 74.5025 29.7869 74.479 29.7846C74.4624 29.783 74.4457 29.7823 74.429 29.7826C74.183 29.7826 73.929 29.8726 73.671 30.0526C73.413 30.2206 73.143 30.4966 72.862 30.8786C72.582 31.2606 72.295 31.7656 72.002 32.3946C71.6725 33.1383 71.3802 33.8979 71.126 34.6706C70.999 35.0436 70.871 35.4466 70.743 35.8776L70.115 38.3276Z" fill="#2F2352"/>
<path fill-rule="evenodd" clip-rule="evenodd" d="M66.962 27.0185C66.4 26.6135 65.501 26.4115 64.265 26.4115C63.883 26.4115 63.501 26.4175 63.118 26.4285C62.748 26.4395 62.321 26.4455 61.838 26.4455H60.995C60.691 26.4335 60.405 26.4285 60.135 26.4285C59.9103 26.4186 59.6856 26.4073 59.461 26.3945L59.377 26.7315C59.815 26.7315 60.113 26.7875 60.27 26.9005C60.439 27.0005 60.517 27.1585 60.506 27.3725C60.4833 27.6455 60.4382 27.916 60.371 28.1815L58.146 36.5415C58.046 36.9455 57.933 37.2495 57.809 37.4515C57.697 37.6447 57.5169 37.7892 57.304 37.8565C57.09 37.9235 56.792 37.9685 56.41 37.9905L56.343 38.3275C56.533 38.3175 56.764 38.3115 57.033 38.3115C57.303 38.2995 57.59 38.2945 57.893 38.2945C58.7413 38.2687 59.5902 38.2744 60.438 38.3115C60.899 38.3215 61.321 38.3285 61.703 38.3285C62.433 38.3285 63.124 38.2545 63.776 38.1085C64.377 37.9722 64.9518 37.7392 65.478 37.4185C65.9488 37.1381 66.3472 36.751 66.641 36.2885C66.933 35.8385 67.079 35.3115 67.079 34.7045C67.079 34.0185 66.799 33.4285 66.237 32.9345C65.687 32.4395 64.815 32.1475 63.624 32.0575C64.3671 31.9508 65.0891 31.7292 65.764 31.4005C66.394 31.0745 66.888 30.6755 67.248 30.2035C67.6104 29.7554 67.8068 29.1958 67.804 28.6195C67.804 27.9455 67.525 27.4115 66.962 27.0185ZM61.582 32.2775L60.455 36.5415C60.388 36.8215 60.343 37.0695 60.321 37.2825C60.309 37.4965 60.365 37.6595 60.489 37.7725C60.613 37.8845 60.843 37.9405 61.18 37.9405C61.978 37.9405 62.63 37.7885 63.135 37.4855C63.6298 37.1946 64.024 36.7595 64.265 36.2385C64.512 35.6985 64.635 35.0915 64.635 34.4185C64.635 34.0015 64.562 33.6365 64.416 33.3225C64.2875 33.0035 64.0563 32.7365 63.759 32.5635C63.456 32.3725 63.051 32.2775 62.545 32.2775H61.582ZM61.658 31.9905H62.428C63.068 31.9905 63.613 31.8275 64.062 31.5015C64.523 31.1645 64.872 30.7265 65.108 30.1875C65.3538 29.6535 65.48 29.0724 65.478 28.4845C65.478 27.9225 65.366 27.4905 65.141 27.1865C64.928 26.8835 64.551 26.7315 64.011 26.7315C63.619 26.7315 63.338 26.8105 63.169 26.9675C63.001 27.1135 62.855 27.4335 62.731 27.9275L61.658 31.9905Z" fill="#2F2352"/>
</g>
<defs>
<clipPath id="clip0_1_7057">
<rect width="174" height="39" fill="white"/>
</clipPath>
</defs>
</svg>
