<svg width="28" height="28" viewBox="0 0 28 28" fill="none" xmlns="http://www.w3.org/2000/svg">
<path d="M24.0671 18.6654C23.9763 18.556 23.8872 18.4466 23.7997 18.3411C22.5965 16.8859 21.8686 16.0076 21.8686 11.888C21.8686 9.75516 21.3584 8.00516 20.3527 6.69266C19.6111 5.72305 18.6087 4.9875 17.2875 4.44391C17.2705 4.43445 17.2553 4.42204 17.2426 4.40727C16.7674 2.81586 15.4669 1.75 14.0002 1.75C12.5335 1.75 11.2336 2.81586 10.7583 4.40562C10.7457 4.41988 10.7307 4.4319 10.714 4.44117C7.63075 5.71047 6.13231 8.1457 6.13231 11.8863C6.13231 16.0076 5.40552 16.8859 4.2013 18.3395C4.1138 18.445 4.02466 18.5522 3.93388 18.6637C3.69938 18.9466 3.5508 19.2906 3.50573 19.6552C3.46067 20.0198 3.521 20.3897 3.67958 20.7211C4.017 21.432 4.73614 21.8734 5.557 21.8734H22.4494C23.2665 21.8734 23.9807 21.4326 24.3192 20.7249C24.4785 20.3935 24.5394 20.0233 24.4947 19.6582C24.45 19.2932 24.3016 18.9487 24.0671 18.6654ZM14.0002 26.25C14.7905 26.2494 15.5658 26.0348 16.244 25.6292C16.9222 25.2236 17.478 24.642 17.8524 23.946C17.87 23.9127 17.8787 23.8753 17.8777 23.8376C17.8766 23.7999 17.8658 23.7631 17.8463 23.7308C17.8269 23.6985 17.7993 23.6718 17.7665 23.6532C17.7336 23.6347 17.6965 23.625 17.6588 23.625H10.3427C10.3049 23.6249 10.2678 23.6345 10.2348 23.653C10.2019 23.6715 10.1743 23.6982 10.1548 23.7305C10.1352 23.7629 10.1244 23.7997 10.1233 23.8375C10.1222 23.8752 10.1309 23.9126 10.1486 23.946C10.5229 24.6419 11.0786 25.2234 11.7567 25.6291C12.4348 26.0347 13.21 26.2493 14.0002 26.25Z" fill="white"/>
</svg>
