<svg width="20" height="20" viewBox="0 0 20 20" fill="none" xmlns="http://www.w3.org/2000/svg">
<path d="M10 14.7143C10.5967 14.7143 11.169 14.5337 11.591 14.2122C12.0129 13.8907 12.25 13.4547 12.25 13C12.25 12.5453 12.0129 12.1093 11.591 11.7878C11.169 11.4663 10.5967 11.2857 10 11.2857C9.40326 11.2857 8.83097 11.4663 8.40901 11.7878C7.98705 12.1093 7.75 12.5453 7.75 13C7.75 13.4547 7.98705 13.8907 8.40901 14.2122C8.83097 14.5337 9.40326 14.7143 10 14.7143ZM16.75 7C17.3467 7 17.919 7.18061 18.341 7.5021C18.7629 7.82359 19 8.25963 19 8.71429V17.2857C19 17.7404 18.7629 18.1764 18.341 18.4979C17.919 18.8194 17.3467 19 16.75 19H3.25C2.65326 19 2.08097 18.8194 1.65901 18.4979C1.23705 18.1764 1 17.7404 1 17.2857V8.71429C1 8.25963 1.23705 7.82359 1.65901 7.5021C2.08097 7.18061 2.65326 7 3.25 7H4.375V5.28571C4.375 4.14907 4.96763 3.05898 6.02252 2.25526C7.07742 1.45153 8.50816 1 10 1C10.7387 1 11.4701 1.11085 12.1526 1.32623C12.8351 1.54161 13.4551 1.85729 13.9775 2.25526C14.4998 2.65322 14.9141 3.12568 15.1968 3.64564C15.4795 4.16561 15.625 4.72291 15.625 5.28571V7H16.75ZM10 2.71429C9.10489 2.71429 8.24645 2.9852 7.61351 3.46744C6.98058 3.94968 6.625 4.60373 6.625 5.28571V7H13.375V5.28571C13.375 4.60373 13.0194 3.94968 12.3865 3.46744C11.7536 2.9852 10.8951 2.71429 10 2.71429Z" fill="white"/>
</svg>
