<svg width="24" height="24" viewBox="0 0 24 24" fill="none" xmlns="http://www.w3.org/2000/svg">
<rect width="24" height="24" fill="#F6F6F6"/>
<path d="M16.052 1.78711L17.018 2.04811C18.1994 2.36779 19.2763 2.99161 20.1413 3.85735C21.0063 4.72309 21.6293 5.80049 21.948 6.98211L22.208 7.94711L20.278 8.46811L20.017 7.50311C19.7892 6.65908 19.3442 5.88952 18.7262 5.27118C18.1082 4.65284 17.3389 4.20734 16.495 3.97911L15.53 3.71711L16.052 1.78711ZM0.999998 2.00011H9.58L11.067 8.69011L9.207 10.5501C10.3006 12.2521 11.7477 13.6989 13.45 14.7921L15.31 12.9331L22 14.4201V23.0001H21C17.1503 23.0067 13.3814 21.8965 10.15 19.8041C7.76722 18.2621 5.73804 16.2329 4.196 13.8501C2.10362 10.6187 0.993434 6.84978 0.999998 3.00011V2.00011ZM3.027 4.00011C3.19551 7.12002 4.17773 10.1415 5.876 12.7641C7.26432 14.9091 9.09104 16.7358 11.236 18.1241C13.8586 19.8224 16.8801 20.8046 20 20.9731V16.0241L15.947 15.1241L13.773 17.2991L13.11 16.9221C10.5926 15.4916 8.50854 13.4075 7.078 10.8901L6.701 10.2271L8.876 8.05311L7.976 4.00011H3.027ZM15.138 5.16511L16.104 5.42611C16.6947 5.58595 17.2331 5.89786 17.6656 6.33073C18.0982 6.7636 18.4096 7.3023 18.569 7.89311L18.829 8.85811L16.899 9.37911L16.638 8.41411C16.5696 8.16089 16.436 7.93003 16.2505 7.74456C16.0651 7.55909 15.8342 7.4255 15.581 7.35711L14.616 7.09611L15.138 5.16511Z" fill="#BE0002"/>
</svg>
