<svg width="52" height="52" viewBox="0 0 52 52" fill="none" xmlns="http://www.w3.org/2000/svg">
<path d="M17.3333 21.6667V15.1667C17.3333 10.3783 21.2116 6.5 25.9999 6.5C30.7883 6.5 34.6666 10.3783 34.6666 15.1667V21.6667M25.9999 32.5C26.5746 32.5 27.1257 32.2717 27.532 31.8654C27.9383 31.4591 28.1666 30.908 28.1666 30.3333C28.1666 29.7587 27.9383 29.2076 27.532 28.8013C27.1257 28.3949 26.5746 28.1667 25.9999 28.1667C25.4253 28.1667 24.8742 28.3949 24.4679 28.8013C24.0615 29.2076 23.8333 29.7587 23.8333 30.3333C23.8333 30.908 24.0615 31.4591 24.4679 31.8654C24.8742 32.2717 25.4253 32.5 25.9999 32.5ZM25.9999 32.5V39M14.2999 21.6667H37.6999C39.6066 21.6667 41.1666 23.2267 41.1666 25.1333V40.3C41.1666 43.16 38.8266 45.5 35.9666 45.5H16.0333C13.1733 45.5 10.8333 43.16 10.8333 40.3V25.1333C10.8333 23.2267 12.3933 21.6667 14.2999 21.6667Z" stroke="black" stroke-width="3.25" stroke-miterlimit="10" stroke-linecap="round" stroke-linejoin="round"/>
</svg>
